<svg viewBox="0 0 800 800" xmlns="http://www.w3.org/2000/svg"><path d="M560.7568979179048,449.3397106642812 L560.691588274429,496.1187317809576 M560.7218731056371,506.83101858181607 L558.4828356507325,506.67522157012945 M558.4828356507325,506.67522157012945 L556.3732317461174,506.21691047760794 M556.3732317461174,506.21691047760794 L554.5158133762959,505.4827964543417 M554.5158133762959,505.4827964543417 L553.018596316932,504.5156486161687 M553.018596316932,504.5156486161687 L551.9685673517032,503.3717846071282 M551.9685673517032,503.3717846071282 L551.4266438483481,502.11777690365784 M551.4266438483481,502.11777690365784 L551.4241416021499,500.82655328699497 M551.4241416021499,500.82655328699497 L551.9610131277811,499.57315712475383 M551.9610131277811,499.57315712475383 L553.0058808189132,498.43037715823374 M553.0058808189132,498.43037715823374 L554.4979102106253,497.4645356853677 M554.4979102106253,497.4645356853677 L556.3503668357923,496.7316522865213 M556.3503668357923,496.7316522865213 L558.4556622611815,496.274214995234 M558.4556622611815,496.274214995234 L560.691588274429,496.1187317809576 M560.7873171853007,460.0275850640751 L560.7218731056371,506.83101858181607 M560.7568979179048,449.3397106642812 L558.5160181482365,449.49483919728385 M558.5160181482365,449.49483919728385 L556.4060599119678,449.95123306277816 M556.4060599119678,449.95123306277816 L554.5495017626622,450.68244492144277 M554.5495017626622,450.68244492144277 L553.0541701912211,451.64608387774535 M553.0541701912211,451.64608387774535 L552.0069916800667,452.7862583460557 M552.0069916800667,452.7862583460557 L551.4689354839429,454.0367974459776 M551.4689354839429,454.0367974459776 L551.4714488360084,455.325078471082 M551.4714488360084,455.325078471082 L552.0145794403297,456.57622907186044 M552.0145794403297,456.57622907186044 L553.0669421322045,457.7174875087889 M553.0669421322045,457.7174875087889 L554.5674843999367,458.68243274408223 M554.5674843999367,458.68243274408223 L556.4290263204609,459.414875145457 M556.4290263204609,459.414875145457 L558.5433121626359,459.87214275188813 M558.5433121626359,459.87214275188813 L560.7873171853007,460.0275850640751 M622.4064696728,414.14131722662853 L622.2055331547001,460.8395960633785 M622.4064696728,414.14131722662853 L560.7568979179048,449.3397106642812 M622.2055331547001,460.8395960633785 L560.691588274429,496.1187317809576 M712.4644993055938,501.4721269571339 L640.8316825042034,460.8395993715253 M640.8316825042034,460.8395993715253 L640.5476795271327,459.5679137397755 M640.5476795271327,459.5679137397755 L639.7391347970977,458.37041543974016 M639.7391347970977,458.37041543974016 L638.4531762416382,457.31663105922974 M638.4531762416382,457.31663105922974 L636.7646110191843,456.4676958873625 M636.7646110191843,456.4676958873625 L634.7715476822193,455.8728339746947 M634.7715476822193,455.8728339746947 L632.5897007457186,455.5665326215313 M632.5897007457186,455.5665326215313 L630.3457075560914,455.5665304183381 M630.3457075560914,455.5665304183381 L628.1697803331914,455.8728350763563 M628.1697803331914,455.8728350763563 L626.1882022230695,456.46769478557474 M626.1882022230695,456.46769478557474 L624.5160277464439,457.3166299572618 M624.5160277464439,457.3166299572618 L623.250411201599,458.3704165419318 M623.250411201599,458.3704165419318 L622.4649851092668,459.56791153488416 M622.4649851092668,459.56791153488416 L622.2055331547001,460.8395960633785 M560.7218731056371,506.83101858181607 L591.7679902991738,524.5970701434024 M399.94903882035027,565.0667307975148 L591.7679902991738,524.5970701434024 M471.0697035391387,455.52782156051273 L399.94903882035027,565.0667307975148 M471.0697035391387,455.52782156051273 L501.8110623877068,473.1194760328662 M501.8110623877068,473.1194760328662 L502.0784313090211,474.394481388695 M502.0784313090211,474.394481388695 L502.8723336580562,475.59567465183 M502.8723336580562,475.59567465183 L504.1467754469184,476.6531716542704 M504.1467754469184,476.6531716542704 L505.82776086478987,477.50541042534593 M505.82776086478987,477.50541042534593 L507.8175761018169,478.1027524740551 M507.8175761018169,478.1027524740551 L510.0004648824688,478.41038761723604 M510.0004648824688,478.41038761723604 L512.2493974804913,478.4103880667307 M512.2493974804913,478.4103880667307 L514.4334746144708,478.10275178256563 M514.4334746144708,478.10275178256563 L516.4255953873262,477.5054109093329 M516.4255953873262,477.5054109093329 L518.1098725579413,476.6531720690485 M518.1098725579413,476.6531720690485 L519.3883983379912,475.5956747900613 M519.3883983379912,475.5956747900613 L520.186937623843,474.3944812504956 M520.186937623843,474.3944812504956 L520.4592321335557,473.1194760328661 M520.4592321335557,473.1194760328661 L631.0276916488551,409.986498424188 M631.0276916488551,409.986498424188 L752.252361850565,478.4492659770316 M752.252361850565,478.4492659770316 L712.4644993055938,501.4721269571339 M591.9025304538112,477.75325658668146 L591.7679902991738,524.5970701434024 M560.7873171853007,460.0275850640751 L591.9025304538112,477.75325658668146 M622.4064696728,414.14131722662853 L622.6664698864184,412.872553020919 M622.6664698864184,412.872553020919 L623.4536068364248,411.6778086074107 M623.4536068364248,411.6778086074107 L624.7219967795662,410.6264430150628 M624.7219967795662,410.6264430150628 L626.3978456832413,409.7794585481373 M626.3978456832413,409.7794585481373 L628.3837858108438,409.1859659047769 M628.3837858108438,409.1859659047769 L630.5645096157266,408.88036523369067 M630.5645096157266,408.88036523369067 L632.8134559550164,408.8803674318201 M632.8134559550164,408.8803674318201 L635.0001256229909,409.1859648056473 M635.0001256229909,409.1859648056473 L636.9976017388678,409.7794596473933 M636.9976017388678,409.7794596473933 L638.6899138358517,410.6264441144989 M638.6899138358517,410.6264441144989 L639.9787357185835,411.67780750775114 M639.9787357185835,411.67780750775114 L640.7890935159912,412.87255522074645 M640.7890935159912,412.87255522074645 L641.0737533072004,414.14132052717935 M399.65622589513106,518.1314345269304 L591.9025304538112,477.75325658668146 M470.9369373459633,408.84174534414205 L399.65622589513106,518.1314345269304 M470.9369373459633,408.84174534414205 L501.7460409104367,426.39303271527825 M520.4354423538516,426.39303271527825 L520.1625427959214,427.66511731373095 M520.1625427959214,427.66511731373095 L519.3622346701168,428.86355994327005 M519.3622346701168,428.86355994327005 L518.0808784012731,429.9186359043637 M518.0808784012731,429.9186359043637 L516.3928732865646,430.7689237456311 M516.3928732865646,430.7689237456311 L514.3963438739725,431.3648973320141 M514.3963438739725,431.3648973320141 L512.207434114126,431.67182950936706 M512.207434114126,431.67182950936706 L509.9535265196704,431.6718290609011 M509.9535265196704,431.6718290609011 L507.7658103756032,431.3648980219208 M507.7658103756032,431.3648980219208 L505.7715967123621,430.76892326275197 M505.7715967123621,430.76892326275197 L504.0868979265188,429.9186354905352 M504.0868979265188,429.9186354905352 L502.8096437326651,428.8635598053554 M502.8096437326651,428.8635598053554 L502.0139930781059,427.6651174516138 M502.0139930781059,427.6651174516138 L501.7460409104367,426.39303271527825 M631.247029940098,363.40553439540406 L520.4354423538516,426.39303271527825 M752.7413250269381,431.7106184401685 L631.247029940098,363.40553439540406 M752.7413250269381,431.7106184401685 L712.8663340006949,454.68089981885555 M712.8663340006949,454.68089981885555 L641.0737533072004,414.14132052717935 M641.0737533072004,414.14132052717935 L640.8316825042034,460.8395993715253 M712.8663340006949,454.68089981885555 L712.4644993055938,501.4721269571339 M752.7413250269381,431.7106184401685 L752.252361850565,478.4492659770316 M631.247029940098,363.40553439540406 L631.0276916488551,409.986498424188 M520.4354423538516,426.39303271527825 L520.4592321335557,473.1194760328661 M501.7460409104367,426.39303271527825 L501.8110623877068,473.1194760328662 M470.9369373459633,408.84174534414205 L471.0697035391387,455.52782156051273 M399.65622589513106,518.1314345269304 L399.94903882035027,565.0667307975148" stroke="black"  stroke-width="4"  fill="red"/>
<path d="M443.6494005127857,562.7747640575494 L443.4527913899923,515.5279434136097 M591.9025304538112,477.75325658668146 L592.0376697836841,430.7008238775711 M443.6494005127857,562.7747640575494 L591.9025304538112,477.75325658668146 M443.4527913899923,515.5279434136097 L592.0376697836841,430.7008238775711 M560.7873171853007,460.0275850640751 L560.8530522229106,413.01606808081584 M591.9025304538112,477.75325658668146 L560.7873171853007,460.0275850640751 M592.0376697836841,430.7008238775711 L560.8530522229106,413.01606808081584 M560.8224976222327,402.35292906990304 L558.5766420989556,402.5076982337023 M558.5766420989556,402.5076982337023 L556.4620003533767,402.9630348813314 M556.4620003533767,402.9630348813314 L554.6013224788676,403.6925531028011 M554.6013224788676,403.6925531028011 L553.1026740797272,404.65396042158767 M553.1026740797272,404.65396042158767 L552.0531745056655,405.79149493578586 M552.0531745056655,405.79149493578586 L551.5139283998276,407.03913918217677 M551.5139283998276,407.03913918217677 L551.5164529318662,408.32443868383683 M551.5164529318662,408.32443868383683 L552.0607960260637,409.57269437200836 M552.0607960260637,409.57269437200836 L553.1155028403157,410.71131274776894 M553.1155028403157,410.71131274776894 L554.6193851180573,411.674026219277 M554.6193851180573,411.674026219277 L556.485068937335,412.40477486411066 M556.485068937335,412.40477486411066 L558.604057543135,412.8609851656558 M558.604057543135,412.8609851656558 L560.8530522229106,413.01606808081584 M560.7568979179048,449.3397106642812 L560.8224976222327,402.35292906990304 M560.7873171853007,460.0275850640751 L558.5433121626359,459.87214275188813 M558.5433121626359,459.87214275188813 L556.4290263204609,459.414875145457 M556.4290263204609,459.414875145457 L554.5674843999367,458.68243274408223 M554.5674843999367,458.68243274408223 L553.0669421322045,457.7174875087889 M553.0669421322045,457.7174875087889 L552.0145794403297,456.57622907186044 M552.0145794403297,456.57622907186044 L551.4714488360084,455.325078471082 M551.4714488360084,455.325078471082 L551.4689354839429,454.0367974459776 M551.4689354839429,454.0367974459776 L552.0069916800667,452.7862583460557 M552.0069916800667,452.7862583460557 L553.0541701912211,451.64608387774535 M553.0541701912211,451.64608387774535 L554.5495017626622,450.68244492144277 M554.5495017626622,450.68244492144277 L556.4060599119678,449.95123306277816 M556.4060599119678,449.95123306277816 L558.5160181482365,449.49483919728385 M558.5160181482365,449.49483919728385 L560.7568979179048,449.3397106642812 M671.8765268082855,339.23424055686155 L560.8224976222327,402.35292906990304 M671.566739146552,386.07360390466624 L671.8765268082855,339.23424055686155 M560.7568979179048,449.3397106642812 L671.566739146552,386.07360390466624 M551.1805923120417,271.687270049683 L671.8765268082855,339.23424055686155 M551.1369166274906,318.3669750231958 L551.1805923120417,271.687270049683 M671.566739146552,386.07360390466624 L551.1369166274906,318.3669750231958 M511.25703686851267,340.8368784996745 L511.2131692220779,294.1039704589941 M551.1369166274906,318.3669750231958 L511.25703686851267,340.8368784996745 M551.1805923120417,271.687270049683 L511.2131692220779,294.1039704589941 M582.0336264832272,380.80275156014994 L582.1457317400229,333.97574710540823 M511.25703686851267,340.8368784996745 L582.0336264832272,380.80275156014994 M511.2131692220779,294.1039704589941 L582.1457317400229,333.97574710540823 M582.1979520635996,344.49813091449306 L584.4308447752569,344.3450954191497 M584.4308447752569,344.3450954191497 L586.5322625670282,343.89491152245813 M586.5322625670282,343.89491152245813 L588.379934948354,343.1738104950129 M588.379934948354,343.1738104950129 L589.8664048371215,342.22380877099704 M589.8664048371215,342.22380877099704 L590.9053129284907,341.1002243542769 M590.9053129284907,341.1002243542769 L591.436393525107,339.868447903702 M591.436393525107,339.868447903702 L591.4289519882166,338.60011590935414 M591.4289519882166,338.60011590935414 L590.8836296720674,337.36893579679736 M590.8836296720674,337.36893579679736 L589.8322723757291,336.24641324189156 M589.8322723757291,336.24641324189156 L588.3361048164434,335.29769236885437 M588.3361048164434,335.29769236885437 L586.4820970325873,334.5777999392816 M586.4820970325873,334.5777999392816 L584.3779223093975,334.12847273046566 M584.3779223093975,334.12847273046566 L582.1457317400229,333.97574710540823 M582.085617050413,391.3498539313151 L582.1979520635996,344.49813091449306 M582.0336264832272,380.80275156014994 L584.2609016012093,380.9558362997078 M584.2609016012093,380.9558362997078 L586.3604390283035,381.40621998502206 M586.3604390283035,381.40621998502206 L588.2103565519026,382.1278048741351 M588.2103565519026,382.1278048741351 L589.7032182780285,383.07875583963244 M589.7032182780285,383.07875583963244 L590.752246380163,384.20391653071033 M590.752246380163,384.20391653071033 L591.2963520189994,385.437989521832 M591.2963520189994,385.437989521832 L591.3037608216821,386.7093010081791 M591.3037608216821,386.7093010081791 L590.773834226139,387.94397041449815 M590.773834226139,387.94397041449815 L589.7372005610489,389.0701931176923 M589.7372005610489,389.0701931176923 L588.2539938357368,390.0224251154664 M588.2539938357368,390.0224251154664 L586.4103838304125,390.7452187783421 M586.4103838304125,390.7452187783421 L584.3135912170053,391.19645927520116 M584.3135912170053,391.19645927520116 L582.085617050413,391.3498539313151 M520.4354423538516,426.39303271527825 L520.4115471503374,379.45952233999355 M582.085617050413,391.3498539313151 L520.4354423538516,426.39303271527825 M582.1979520635996,344.49813091449306 L520.4115471503374,379.45952233999355 M501.6807312921263,379.45952233999355 L501.9492692556325,380.7286480171432 M501.9492692556325,380.7286480171432 L502.74667593201616,381.9243032469886 M502.74667593201616,381.9243032469886 L504.0267549698458,382.9769257325555 M504.0267549698458,382.9769257325555 L505.71518356448945,383.82523681178884 M505.71518356448945,383.82523681178884 L507.7138151404823,384.4198262721257 M507.7138151404823,384.4198262721257 L509.9063800444195,384.7260439319866 M509.9063800444195,384.7260439319866 L512.1652846931444,384.72604437941027 M512.1652846931444,384.72604437941027 L514.359048510348,384.4198255838225 M514.359048510348,384.4198255838225 L516.3600061172195,383.82523729354546 M516.3600061172195,383.82523729354546 L518.0517557138835,382.9769261454218 M518.0517557138835,382.9769261454218 L519.3359550308815,381.9243033845827 M519.3359550308815,381.9243033845827 L520.1380398496229,380.7286478795811 M520.1380398496229,380.7286478795811 L520.4115471503374,379.45952233999355 M501.7460409104367,426.39303271527825 L501.6807312921263,379.45952233999355 M520.4354423538516,426.39303271527825 L520.1625427959214,427.66511731373095 M520.1625427959214,427.66511731373095 L519.3622346701168,428.86355994327005 M519.3622346701168,428.86355994327005 L518.0808784012731,429.9186359043637 M518.0808784012731,429.9186359043637 L516.3928732865646,430.7689237456311 M516.3928732865646,430.7689237456311 L514.3963438739725,431.3648973320141 M514.3963438739725,431.3648973320141 L512.207434114126,431.67182950936706 M512.207434114126,431.67182950936706 L509.9535265196704,431.6718290609011 M509.9535265196704,431.6718290609011 L507.7658103756032,431.3648980219208 M507.7658103756032,431.3648980219208 L505.7715967123621,430.76892326275197 M505.7715967123621,430.76892326275197 L504.0868979265188,429.9186354905352 M504.0868979265188,429.9186354905352 L502.8096437326651,428.8635598053554 M502.8096437326651,428.8635598053554 L502.0139930781059,427.6651174516138 M502.0139930781059,427.6651174516138 L501.7460409104367,426.39303271527825 M470.9369373459633,408.84174534414205 L470.8035838022342,361.949132417944 M501.7460409104367,426.39303271527825 L470.9369373459633,408.84174534414205 M501.6807312921263,379.45952233999355 L470.8035838022342,361.949132417944 M322.6918057038604,492.7364425003682 L322.2267573260526,445.6495291086159 M470.9369373459633,408.84174534414205 L322.6918057038604,492.7364425003682 M470.8035838022342,361.949132417944 L322.2267573260526,445.6495291086159 M443.4527913899923,515.5279434136097 L447.94040441826274,523.8320151565154 M447.94040441826274,523.8320151565154 L451.3360320608943,532.3221827953182 M451.3360320608943,532.3221827953182 L453.6180653337488,540.9515345169855 M453.6180653337488,540.9515345169855 L454.7709954345003,549.6721175169791 M454.7709954345003,549.6721175169791 L454.7855019194864,558.4352577709592 M454.7855019194864,558.4352577709592 L453.65867946114577,567.1917824853176 M453.65867946114577,567.1917824853176 L451.39401289264475,575.8923225001004 M451.39401289264475,575.8923225001004 L448.00147097884775,584.4875628507309 M448.00147097884775,584.4875628507309 L443.4975186412357,592.9285645726502 M443.4975186412357,592.9285645726502 L437.9050466290897,601.1670113403263 M437.9050466290897,601.1670113403263 L431.25332645564464,609.1555544750677 M431.25332645564464,609.1555544750677 L423.5779114956912,616.8480449613801 M423.5779114956912,616.8480449613801 L414.9204091570799,624.199867410861 M414.9204091570799,624.199867410861 L405.32839485116614,631.1681822424059 M405.32839485116614,631.1681822424059 L394.85507550701203,637.7122361724498 M394.85507550701203,637.7122361724498 L383.559020770302,643.7936295660386 M383.559020770302,643.7936295660386 L371.50386656933256,649.3765207020786 M371.50386656933256,649.3765207020786 L358.7579723967434,654.4279417371343 M358.7579723967434,654.4279417371343 L345.39398903651704,658.917901070248 M345.39398903651704,658.917901070248 L331.48845767325895,662.8197343820517 M331.48845767325895,662.8197343820517 L317.12124103835635,666.1102118827662 M317.12124103835635,666.1102118827662 L302.37518224342085,668.7697065684415 M302.37518224342085,668.7697065684415 L287.33560412490283,670.7822693844614 M287.33560412490283,670.7822693844614 L272.0895078893174,672.1359035395717 M272.0895078893174,672.1359035395717 L256.72542047482744,672.8224650773918 M256.72542047482744,672.8224650773918 L241.33243068185723,672.8378730039632 M241.33243068185723,672.8378730039632 L226.00001371154383,672.1819864895581 M226.00001371154383,672.1819864895581 L210.81713573267842,670.8587679613058 M210.81713573267842,670.8587679613058 L195.8717983793264,668.8761688285235 M195.8717983793264,668.8761688285235 L181.25063920735926,666.2460011439543 M181.25063920735926,666.2460011439543 L167.03809430816898,662.984032690505 M167.03809430816898,662.984032690505 L153.31611844085836,659.1097199136493 M153.31611844085836,659.1097199136493 L140.16354985607677,654.6461364644811 M140.16354985607677,654.6461364644811 L127.65563088194216,649.6198317571086 M127.65563088194216,649.6198317571086 L115.86362908485302,644.060587119777 M115.86362908485302,644.060587119777 L104.85432698593979,638.0012735129609 M104.85432698593979,638.0012735129609 L94.68970252849516,631.4775858350114 M94.68970252849516,631.4775858350114 L85.42652856840931,624.5278345637872 M85.42652856840931,624.5278345637872 L77.11611575966049,617.192663983401 M77.11611575966049,617.192663983401 L69.80396636031907,609.5148251903022 M69.80396636031907,609.5148251903022 L63.52965313785643,601.5388516161621 M63.52965313785643,601.5388516161621 L58.326527020314586,593.3108189964778 M58.326527020314586,593.3108189964778 L54.221605846503394,584.8780604201507 M54.221605846503394,584.8780604201507 L51.23558634847274,576.2888045695429 M51.23558634847274,576.2888045695429 L49.38251114843507,567.5920250362451 M49.38251114843507,567.5920250362451 L48.67006157570859,558.8369874754113 M48.67006157570859,558.8369874754113 L49.099450189157835,550.0730533358819 M49.099450189157835,550.0730533358819 L50.6653289257348,541.3494605074366 M50.6653289257348,541.3494605074366 L53.35616679770351,532.7148659681652 M53.35616679770351,532.7148659681652 L57.154109190426595,524.2173002746872 M57.154109190426595,524.2173002746872 L62.035406456105136,515.9036841482689 M62.035406456105136,515.9036841482689 L67.97028011939096,507.81980496086567 M67.97028011939096,507.81980496086567 L74.92342162724714,500.0099323678611 M74.92342162724714,500.0099323678611 L82.85412830283184,492.5166026580813 M82.85412830283184,492.5166026580813 L91.71657591955739,485.38049301059414 M91.71657591955739,485.38049301059414 L101.45997695906482,478.6401642809863 M101.45997695906482,478.6401642809863 L112.02913212660775,472.33189677384485 M112.02913212660775,472.33189677384485 L123.36454721396376,466.4895009345725 M123.36454721396376,466.4895009345725 L135.40289737897263,461.14417380241326 M135.40289737897263,461.14417380241326 L148.0772906465355,456.3243731639041 M148.0772906465355,456.3243731639041 L161.31762947684544,452.0556994843191 M161.31762947684544,452.0556994843191 L175.05104110516186,448.3607312008876 M175.05104110516186,448.3607312008876 L189.20218308439226,445.2589910363762 M189.20218308439226,445.2589910363762 L203.6937070119387,442.7668236760508 M203.6937070119387,442.7668236760508 L218.44654736410524,440.8973358971716 M218.44654736410524,440.8973358971716 L233.3804060965627,439.6603582573138 M233.3804060965627,439.6603582573138 L248.41407594399854,439.0623833110685 M248.41407594399854,439.0623833110685 L263.4658992049764,439.10654232144327 M263.4658992049764,439.10654232144327 L278.4541136925503,439.7926201652015 M278.4541136925503,439.7926201652015 L293.29730145620675,441.116997011183 M293.29730145620675,441.116997011183 L307.9147098697905,443.0727260258952 M307.9147098697905,443.0727260258952 L322.2267573260526,445.6495291086159 M322.6918057038604,492.7364425003682 L308.4114822216891,490.1537026173658 M308.4114822216891,490.1537026173658 L293.8264927717982,488.1934658142334 M293.8264927717982,488.1934658142334 L279.0162479779025,486.8660354587884 M279.0162479779025,486.8660354587884 L264.0613271116376,486.1783754838486 M264.0613271116376,486.1783754838486 L249.04297336489458,486.1341146335675 M249.04297336489458,486.1341146335675 L234.0427733076951,486.73346856381085 M234.0427733076951,486.73346856381085 L219.14220900133103,487.97329829737856 M219.14220900133103,487.97329829737856 L204.42231265127134,489.8470952972169 M204.42231265127134,489.8470952972169 L189.96320868348477,492.3450048353072 M189.96320868348477,492.3450048353072 L175.8437910152938,495.4538879580771 M175.8437910152938,495.4538879580771 L162.14123939386684,499.1573599384068 M162.14123939386684,499.1573599384068 L148.9307310807112,503.435850347509 M148.9307310807112,503.435850347509 L136.28497805500564,508.2667257330006 M136.28497805500564,508.2667257330006 L124.27392206126422,513.6243234651066 M124.27392206126422,513.6243234651066 L112.96430517004558,519.4801169113409 M112.96430517004558,519.4801169113409 L102.41930897692197,525.8028338705667 M102.41930897692197,525.8028338705667 L92.69829167485318,532.5585828060741 M92.69829167485318,532.5585828060741 L83.85632482297206,539.7109968208222 M83.85632482297206,539.7109968208222 L75.94407678614675,547.2214234974119 M75.94407678614675,547.2214234974119 L69.0072625163416,555.04908959671 M69.0072625163416,555.04908959671 L63.086485746815015,563.1513589490847 M63.086485746815015,563.1513589490847 L58.21696713588619,571.483858568033 M58.21696713588619,571.483858568033 L54.428408754749796,580.0006948667103 M54.428408754749796,580.0006948667103 L51.7444966297482,588.6548389624081 M51.7444966297482,588.6548389624081 L50.18303439024305,597.3981502965745 M50.18303439024305,597.3981502965745 L49.75551585027165,606.1818611824731 M49.75551585027165,606.1818611824731 L50.467265572496444,614.9566224426053 M50.467265572496444,614.9566224426053 L52.31706224620859,623.6729618033107 M52.31706224620859,623.6729618033107 L55.297230535722406,632.2815037348144 M55.297230535722406,632.2815037348144 L59.39374851338442,640.7331661413814 M59.39374851338442,640.7331661413814 L64.58595572051792,648.9796141865447 M64.58595572051792,648.9796141865447 L70.84688559554047,656.9734112629208 M70.84688559554047,656.9734112629208 L78.14325370076722,664.6683814965152 M78.14325370076722,664.6683814965152 L86.43556887724367,672.019895255648 M86.43556887724367,672.019895255648 L95.67842506251952,678.9851096294046 M95.67842506251952,678.9851096294046 L105.82062222477822,685.5232935304655 M105.82062222477822,685.5232935304655 L116.8055118501959,691.5960550903264 M116.8055118501959,691.5960550903264 L128.57125352855917,697.1676239510155 M128.57125352855917,697.1676239510155 L141.05121457222697,702.2050599768063 M141.05121457222697,702.2050599768063 L154.1742888164277,706.6785194296531 M154.1742888164277,706.6785194296531 L167.865405697339,710.561397462217 M167.865405697339,710.561397462217 L182.04590816404612,713.8305724087309 M182.04590816404612,713.8305724087309 L196.6340309019606,716.466547451465 M196.6340309019606,716.466547451465 L211.54553393562355,718.4535221581102 M211.54553393562355,718.4535221581102 L226.69398172398297,719.7796600744355 M226.69398172398297,719.7796600744355 L241.9915784644267,720.4369933778823 M241.9915784644267,720.4369933778823 L257.34956655325107,720.4215514658156 M257.34956655325107,720.4215514658156 L272.67868086780993,719.7334754652961 M272.67868086780993,719.7334754652961 L287.8900419597014,718.3768547811144 M287.8900419597014,718.3768547811144 L302.8953309324951,716.3598501825732 M302.8953309324951,716.3598501825732 L317.6077509233779,713.6944832468105 M317.6077509233779,713.6944832468105 L331.94217922557357,710.3967360572653 M331.94217922557357,710.3967360572653 L345.81596665003576,706.4862763492129 M345.81596665003576,706.4862763492129 L359.1494369016411,701.9863822581433 M359.1494369016411,701.9863822581433 L371.86622684747704,696.9237737806234 M371.86622684747704,696.9237737806234 L383.8938539833367,691.3285053872353 M383.8938539833367,691.3285053872353 L395.16411633848287,685.2336143102394 M395.16411633848287,685.2336143102394 L405.6135237299537,678.675018059626 M405.6135237299537,678.675018059626 L415.18363968848513,671.6911978671799 M415.18363968848513,671.6911978671799 L423.8213772385164,664.3229940747408 M423.8213772385164,664.3229940747408 L431.4792671349253,656.6133382919245 M431.4792671349253,656.6133382919245 L438.1157936584785,648.6069423109282 M438.1157936584785,648.6069423109282 L443.69548054842033,640.3500554740874 M443.69548054842033,640.3500554740874 L448.189118433953,631.8901300410164 M448.189118433953,631.8901300410164 L451.5738636523813,623.2755887180012 M451.5738636523813,623.2755887180012 L453.83328336342777,614.5554789280523 M453.83328336342777,614.5554789280523 L454.95742588501105,605.7792256544988 M454.95742588501105,605.7792256544988 L454.9428086675927,596.9963089336038 M454.9428086675927,596.9963089336038 L453.7923249101207,588.2560127336333 M453.7923249101207,588.2560127336333 L451.5152686336542,579.6071218591854 M451.5152686336542,579.6071218591854 L448.1271086040152,571.0976989724584 M448.1271086040152,571.0976989724584 L443.6494005127857,562.7747640575494 M273.42306194748323,590.0437682167594 L276.99356870419166,592.6014739273761 M276.99356870419166,592.6014739273761 L279.62346862132745,595.5210647838808 M279.62346862132745,595.5210647838808 L281.2111315685958,598.6908286663302 M281.2111315685958,598.6908286663302 L281.6946457345367,601.9893058646169 M281.6946457345367,601.9893058646169 L281.0544014492011,605.2898586341089 M281.0544014492011,605.2898586341089 L279.3140138754619,608.4655136248853 M279.3140138754619,608.4655136248853 L276.539484321797,611.3939113410192 M276.539484321797,611.3939113410192 L272.83688112512266,613.9620055002493 M272.83688112512266,613.9620055002493 L268.3482587487695,616.0705378940536 M268.3482587487695,616.0705378940536 L263.2463817793522,617.6378565186044 M263.2463817793522,617.6378565186044 L257.7278879813457,618.6032371614058 M257.7278879813457,618.6032371614058 L252.00572115393916,618.9292466249437 M252.00572115393916,618.9292466249437 L246.300828006441,618.6032291526328 M246.300828006441,618.6032291526328 L240.83343307526766,617.6378516570253 M240.83343307526766,617.6378516570253 L235.81452431396116,616.0705370363828 M235.81452431396116,616.0705370363828 L231.43756914776128,613.9620055002493 M231.43756914776128,613.9620055002493 L227.87089615867944,611.3939144830233 M227.87089615867944,611.3939144830233 L225.25140930340058,608.465511626539 M225.25140930340058,608.465511626539 L223.67915330074828,605.289850645541 M223.67915330074828,605.289850645541 L223.2136488128279,601.9893149886886 M223.2136488128279,601.9893149886886 L223.8717933572256,598.6908389244817 M223.8717933572256,598.6908389244817 L225.62726013244935,595.521071903308 M225.62726013244935,595.521071903308 L228.41173618797887,592.6014861659978 M228.41173618797887,592.6014861659978 L232.11767094367374,590.0437682167594 M232.11767094367374,590.0437682167594 L236.6024114986122,587.9456485424528 M236.6024114986122,587.9456485424528 L241.69387545816477,586.38714192367 M241.69387545816477,586.38714192367 L247.19697831468227,585.4276492712256 M247.19697831468227,585.4276492712256 L252.90113537704912,585.1036983033196 M252.90113537704912,585.1036983033196 L258.58812826678354,585.4276390389052 M258.58812826678354,585.4276390389052 L264.0404279581844,586.3871376594249 M264.0404279581844,586.3871376594249 L269.04939020108793,587.9456402958017 M269.04939020108793,587.9456402958017 L273.42306194748323,590.0437682167594 M273.42306194748323,590.0437682167594 L272.84275626291407,542.735255173819 M272.84275626291407,542.735255173819 L268.459357232297,540.6418627048574 M268.459357232297,540.6418627048574 L263.43921123322986,539.0868788088405 M263.43921123322986,539.0868788088405 L257.9746986389566,538.1295470312898 M257.9746986389566,538.1295470312898 L252.27492913147802,537.8063379422797 M252.27492913147802,537.8063379422797 L246.55791815663304,538.1295572405004 M246.55791815663304,538.1295572405004 L241.04237352358757,539.0868830634565 M241.04237352358757,539.0868830634565 L235.93935404440413,540.6418709328922 M235.93935404440413,540.6418709328922 L231.44438563102165,542.735255173819 M231.44438563102165,542.735255173819 L227.72994259633495,545.287202923944 M227.72994259633495,545.287202923944 L224.93900571886542,548.2002055045988 M224.93900571886542,548.2002055045988 L223.17937632518692,551.3628293751824 M223.17937632518692,551.3628293751824 L222.51953115766764,554.6538767951208 M222.51953115766764,554.6538767951208 L222.98586699531555,557.9469838196368 M222.98586699531555,557.9469838196368 L224.56145893336557,561.1155016193661 M224.56145893336557,561.1155016193661 L227.18666215059966,564.0373212819297 M227.18666215059966,564.0373212819297 L230.76121503461343,566.5996421179035 M230.76121503461343,566.5996421179035 L235.14791171334923,568.7034381512601 M235.14791171334923,568.7034381512601 L240.17804858406674,570.2672340059439 M240.17804858406674,570.2672340059439 L245.65772414343076,571.2304446620387 M245.65772414343076,571.2304446620387 L251.375474591231,571.5557304612354 M251.375474591231,571.5557304612354 L257.1105767556019,571.2304526528371 M257.1105767556019,571.2304526528371 L262.64158213104014,570.26723885661 M262.64158213104014,570.26723885661 L267.7550621343778,568.703439007005 M267.7550621343778,568.703439007005 L272.25393043651263,566.5996421179034 M272.25393043651263,566.5996421179034 L275.9650275733395,564.037318146987 M275.9650275733395,564.037318146987 L278.74597359568804,561.1155036132187 M278.74597359568804,561.1155036132187 L280.49045609937843,557.9469917902302 M280.49045609937843,557.9469917902302 L281.13232032546284,554.6538676915915 M281.13232032546284,554.6538676915915 L280.64789338589844,551.362819140141 M280.64789338589844,551.362819140141 L279.05682466583215,548.2001984012202 M279.05682466583215,548.2001984012202 L276.4211608721402,545.2871907129258 M276.4211608721402,545.2871907129258 L272.84275626291407,542.735255173819" stroke="black"  stroke-width="4"  fill="red"/>
<path d="M560.888389374984,355.1569633697434 L560.8224976222327,402.35292906990304 M560.8530522229105,413.01606808081584 L558.604057543135,412.8609851656558 M558.604057543135,412.8609851656558 L556.485068937335,412.40477486411066 M556.485068937335,412.40477486411066 L554.6193851180573,411.674026219277 M554.6193851180573,411.674026219277 L553.1155028403157,410.71131274776894 M553.1155028403157,410.71131274776894 L552.0607960260637,409.57269437200836 M552.0607960260637,409.57269437200836 L551.5164529318662,408.32443868383683 M551.5164529318662,408.32443868383683 L551.5139283998276,407.03913918217677 M551.5139283998276,407.03913918217677 L552.0531745056655,405.79149493578586 M552.0531745056655,405.79149493578586 L553.1026740797272,404.65396042158767 M553.1026740797272,404.65396042158767 L554.6013224788676,403.6925531028011 M554.6013224788676,403.6925531028011 L556.4620003533767,402.9630348813314 M556.4620003533767,402.9630348813314 L558.5766420989556,402.5076982337023 M558.5766420989556,402.5076982337023 L560.8224976222327,402.35292906990304 M560.9190802141429,365.7950403907127 L560.8530522229105,413.01606808081584 M560.888389374984,355.1569633697434 L558.6375359502058,355.31136842399746 M558.6375359502058,355.31136842399746 L556.5181898551242,355.76563390748527 M556.5181898551242,355.76563390748527 L554.6533739297269,356.49343614767224 M554.6533739297269,356.49343614767224 L553.1513939546629,357.45258238234635 M553.1513939546629,357.45258238234635 L552.0995630047541,358.58744210118215 M552.0995630047541,358.58744210118215 L551.5591217142251,359.83215328012363 M551.5591217142251,359.83215328012363 L551.5616575010117,361.1144318909246 M551.5616575010117,361.1144318909246 L552.1072185111035,362.35975443353595 M552.1072185111035,362.35975443353595 L553.1642799148993,363.4956978731375 M553.1642799148993,363.4956978731375 L554.6715171059338,364.45615009360245 M554.6715171059338,364.45615009360245 L556.5413612979637,365.18518259950315 M556.5413612979637,365.18518259950315 L558.6650736363697,365.6403216226894 M558.6650736363697,365.6403216226894 L560.9190802141429,365.7950403907127 M622.8110169511746,320.12325726012523 L622.6082955800855,367.2363415456639 M622.8110169511746,320.12325726012523 L560.888389374984,355.1569633697434 M622.6082955800855,367.2363415456639 L560.8224976222327,402.35292906990304 M641.3168955687677,367.236344838519 L641.0315759248376,365.97053819525934 M641.0315759248376,365.97053819525934 L640.219396913224,364.7785771704583 M640.219396913224,364.7785771704583 L638.9276989257717,363.72966653292815 M638.9276989257717,363.72966653292815 L637.231623290773,362.88465836336775 M637.231623290773,362.88465836336775 L635.2297148141226,362.292548525754 M635.2297148141226,362.292548525754 L633.0382010491264,361.98766436526785 M633.0382010491264,361.98766436526785 L630.7842796476218,361.98766217226864 M630.7842796476218,361.98766217226864 L628.5987380689061,362.29254962231846 M628.5987380689061,362.29254962231846 L626.6084166792136,362.88465726667704 M626.6084166792136,362.88465726667704 L624.9288771663691,363.7296654360573 M624.9288771663691,363.7296654360573 L623.6577016450744,364.77857826755263 M623.6577016450744,364.77857826755263 L622.8688463698218,365.97053600056233 M622.8688463698218,365.97053600056233 L622.6082955800855,367.2363415456639 M713.2699542918022,407.6817507930179 L641.3168955687677,367.236344838519 M753.2324561465794,384.7647431585781 L713.2699542918022,407.6817507930179 M631.4673342976625,316.61940646053256 L753.2324561465794,384.7647431585781 M520.4115471503374,379.45952233999355 L631.4673342976625,316.61940646053256 M501.68073129212627,379.45952233999355 L501.9492692556325,380.7286480171432 M501.9492692556325,380.7286480171432 L502.74667593201616,381.9243032469886 M502.74667593201616,381.9243032469886 L504.0267549698458,382.9769257325555 M504.0267549698458,382.9769257325555 L505.71518356448945,383.82523681178884 M505.71518356448945,383.82523681178884 L507.7138151404823,384.4198262721257 M507.7138151404823,384.4198262721257 L509.9063800444195,384.7260439319866 M509.9063800444195,384.7260439319866 L512.1652846931444,384.72604437941027 M512.1652846931444,384.72604437941027 L514.359048510348,384.4198255838225 M514.359048510348,384.4198255838225 L516.3600061172195,383.82523729354546 M516.3600061172195,383.82523729354546 L518.0517557138835,382.9769261454218 M518.0517557138835,382.9769261454218 L519.3359550308815,381.9243033845827 M519.3359550308815,381.9243033845827 L520.1380398496229,380.7286478795811 M520.1380398496229,380.7286478795811 L520.4115471503374,379.45952233999355 M470.8035838022342,361.949132417944 L501.68073129212627,379.45952233999355 M470.8035838022342,361.949132417944 L399.36210385464796,470.986298773627 M399.36210385464796,470.986298773627 L592.0376697836841,430.7008238775711 M560.8530522229105,413.01606808081584 L592.0376697836841,430.7008238775711 M592.1734124052132,383.4383387723398 L592.0376697836841,430.7008238775711 M560.9190802141429,365.7950403907127 L592.1734124052132,383.4383387723398 M622.8110169511746,320.12325726012523 L623.0721206492084,318.86044914032743 M623.0721206492084,318.86044914032743 L623.8627017676021,317.67131459078206 M623.8627017676021,317.67131459078206 L625.1366751294743,316.6248866423016 M625.1366751294743,316.6248866423016 L626.8199215436038,315.7818806481056 M626.8199215436038,315.7818806481056 L628.8146435710312,315.1911761354779 M628.8146435710312,315.1911761354779 L631.0050242599209,314.88701124333375 M631.0050242599209,314.88701124333375 L633.2639427857846,314.8870134311355 M633.2639427857846,314.8870134311355 L635.4603221594034,315.19117504151205 M635.4603221594034,315.19117504151205 L637.466682712758,315.7818817421975 M637.466682712758,315.7818817421975 L639.1665386635824,316.6248877365736 M639.1665386635824,316.6248877365736 L640.4611256211481,317.6713134962864 M640.4611256211481,317.6713134962864 L641.2751340502352,318.8604513298269 M641.2751340502352,318.8604513298269 L641.5611166070753,320.12326054518365 M399.0666636718047,423.62987657470256 L592.1734124052132,383.4383387723398 M470.6696388982467,314.84857280416696 L399.0666636718047,423.62987657470256 M470.6696388982467,314.84857280416696 L501.61513156252124,332.3175290213227 M520.3875458021447,332.31752902132257 L520.1134280455683,333.5836566336882 M520.1134280455683,333.5836566336882 L519.3095586271147,334.77648839573055 M519.3095586271147,334.77648839573055 L518.0225036166182,335.82662571831565 M518.0225036166182,335.82662571831565 L516.3269928869395,336.67293419252667 M516.3269928869395,336.67293419252667 L514.3215873974201,337.26611897651514 M514.3215873974201,337.26611897651514 L512.1229479447215,337.5716150118999 M512.1229479447215,337.5716150118999 L509.85902403299076,337.57161456553223 M509.85902403299076,337.57161456553223 L507.6615888263973,337.26611966319365 M507.6615888263973,337.26611966319365 L505.658519717902,336.67293371190726 M505.658519717902,336.67293371190726 L503.96634476130697,335.82662530642415 M503.96634476130697,335.82662530642415 L502.6834283556184,334.7764882584614 M502.6834283556184,334.7764882584614 L501.88425788855056,333.5836567709255 M501.88425788855056,333.5836567709255 L501.61513156252124,332.3175290213227 M631.6886112890363,269.62671987957015 L520.3875458021447,332.31752902132257 M753.7257700407347,337.61022245422174 L631.6886112890363,269.62671987957015 M753.7257700407347,337.61022245422174 L713.6753724202811,360.47325444640876 M713.6753724202811,360.47325444640876 L641.5611166070753,320.12326054518365 M641.5611166070753,320.12326054518365 L641.3168955687677,367.236344838519 M713.6753724202811,360.47325444640876 L713.2699542918022,407.6817507930179 M753.7257700407347,337.61022245422174 L753.2324561465794,384.7647431585781 M631.6886112890363,269.62671987957015 L631.4673342976625,316.61940646053256 M520.3875458021447,332.31752902132257 L520.4115471503374,379.45952233999355 M501.61513156252124,332.3175290213227 L501.68073129212627,379.45952233999355 M470.6696388982467,314.84857280416696 L470.8035838022342,361.949132417944 M399.0666636718047,423.62987657470256 L399.36210385464796,470.986298773627" stroke="black"  stroke-width="4"  fill="red"/>
<path d="M520.4829171719373,519.6401927934368 L520.4592321335557,473.1194760328661 M501.8110623877068,473.1194760328662 L502.0784313090211,474.394481388695 M502.0784313090211,474.394481388695 L502.8723336580562,475.59567465183 M502.8723336580562,475.59567465183 L504.1467754469184,476.6531716542704 M504.1467754469184,476.6531716542704 L505.82776086478987,477.50541042534593 M505.82776086478987,477.50541042534593 L507.8175761018169,478.1027524740551 M507.8175761018169,478.1027524740551 L510.0004648824688,478.41038761723604 M510.0004648824688,478.41038761723604 L512.2493974804913,478.4103880667307 M512.2493974804913,478.4103880667307 L514.4334746144708,478.10275178256563 M514.4334746144708,478.10275178256563 L516.4255953873262,477.5054109093329 M516.4255953873262,477.5054109093329 L518.1098725579413,476.6531720690485 M518.1098725579413,476.6531720690485 L519.3883983379912,475.5956747900613 M519.3883983379912,475.5956747900613 L520.186937623843,474.3944812504956 M520.186937623843,474.3944812504956 L520.4592321335557,473.1194760328661 M501.87579758929013,519.6401927934368 L501.8110623877068,473.1194760328662 M520.4829171719373,519.6401927934368 L520.2112250334087,520.9180806100026 M520.2112250334087,520.9180806100026 L519.4144467854601,522.1219892403076 M519.4144467854601,522.1219892403076 L518.1387390162577,523.181876302818 M518.1387390162577,523.181876302818 L516.4581733590533,524.0360407284705 M516.4581733590533,524.0360407284705 L514.4704417981025,524.6347310759031 M514.4704417981025,524.6347310759031 L512.2911759973474,524.9430622931866 M512.2911759973474,524.9430622931866 L510.0471964807945,524.9430618426766 M510.0471964807945,524.9430618426766 L507.869113805646,524.6347317689547 M507.869113805646,524.6347317689547 L505.8836776344129,524.0360402433901 M505.8836776344129,524.0360402433901 L504.2063892500192,523.1818758871027 M504.2063892500192,523.1818758871027 L502.9347475075294,522.1219891017639 M502.9347475075294,522.1219891017639 L502.142585797462,520.9180807485144 M502.142585797462,520.9180807485144 L501.87579758929013,519.6401927934368 M581.8624256571075,484.4366043777124 L581.9737759770604,437.99556876216155 M581.8624256571075,484.4366043777124 L520.4829171719373,519.6401927934368 M581.9737759770604,437.99556876216155 L520.4592321335557,473.1194760328661 M581.9220136533199,427.4240664981045 L584.1443949188456,427.5775057269608 M584.1443949188456,427.5775057269608 L586.2393154429531,428.02893228116164 M586.2393154429531,428.02893228116164 L588.0851607125566,428.7521878282523 M588.0851607125566,428.7521878282523 L589.5747311805688,429.70534015462107 M589.5747311805688,429.70534015462107 L590.6214403846834,430.8331049866633 M590.6214403846834,430.8331049866633 L591.1643347618426,432.0700335703457 M591.1643347618426,432.0700335703457 L591.1717110458576,433.3442861374 M591.1717110458576,433.3442861374 L590.6429334485101,434.5818111951055 M590.6429334485101,434.5818111951055 L589.60856427415,435.71063815688717 M589.60856427415,435.71063815688717 L588.1286064182327,436.6650716574131 M588.1286064182327,436.6650716574131 L586.2890409662882,437.38953611696354 M586.2890409662882,437.38953611696354 L584.1968532179051,437.8418195800143 M584.1968532179051,437.8418195800143 L581.9737759770604,437.99556876216155 M511.30071256993006,387.3653044315719 L581.9220136533199,427.4240664981045 M551.0934316307628,364.84287663481723 L511.30071256993006,387.3653044315719 M671.2583129339084,432.7071184841322 L551.0934316307628,364.84287663481723 M560.691588274429,496.1187317809576 L671.2583129339084,432.7071184841322 M560.7218731056371,506.83101858181607 L558.4828356507325,506.67522157012945 M558.4828356507325,506.67522157012945 L556.3732317461174,506.21691047760794 M556.3732317461174,506.21691047760794 L554.5158133762959,505.4827964543417 M554.5158133762959,505.4827964543417 L553.018596316932,504.5156486161687 M553.018596316932,504.5156486161687 L551.9685673517032,503.3717846071282 M551.9685673517032,503.3717846071282 L551.4266438483481,502.11777690365784 M551.4266438483481,502.11777690365784 L551.4241416021499,500.82655328699497 M551.4241416021499,500.82655328699497 L551.9610131277811,499.57315712475383 M551.9610131277811,499.57315712475383 L553.0058808189132,498.43037715823374 M553.0058808189132,498.43037715823374 L554.4979102106253,497.4645356853677 M554.4979102106253,497.4645356853677 L556.3503668357923,496.7316522865213 M556.3503668357923,496.7316522865213 L558.4556622611815,496.274214995234 M558.4556622611815,496.274214995234 L560.691588274429,496.1187317809576 M591.7679902991738,524.5970701434024 L560.7218731056371,506.83101858181607 M591.7679902991738,524.5970701434024 L399.94903882035027,565.0667307975148 M399.94903882035027,565.0667307975148 L471.0697035391387,455.52782156051273 M501.8110623877068,473.1194760328662 L471.0697035391387,455.52782156051273 M471.2018861774463,502.00869578695733 L471.0697035391387,455.52782156051273 M501.87579758929013,519.6401927934368 L471.2018861774463,502.00869578695733 M581.8624256571075,484.4366043777124 L584.0806274521058,484.2825052539049 M584.0806274521058,484.2825052539049 L586.1682305179208,483.82919231048595 M586.1682305179208,483.82919231048595 L588.0037691243986,483.10307865572435 M588.0037691243986,483.10307865572435 L589.4804923131326,482.1464721108678 M589.4804923131326,482.1464721108678 L590.5126068686537,481.0150745487302 M590.5126068686537,481.0150745487302 L591.0402404388863,479.7747307388039 M591.0402404388863,479.7747307388039 L591.0328964598687,478.4975750851793 M591.0328964598687,478.4975750851793 L590.4912079641275,477.2578277900649 M590.4912079641275,477.2578277900649 L589.446807428636,476.12749244317484 M589.446807428636,476.12749244317484 L587.9605137379781,475.17216717561735 M587.9605137379781,475.17216717561735 L586.11872283241,474.44726253546014 M586.11872283241,474.44726253546014 L584.0283989497564,473.99480657228685 M584.0283989497564,473.99480657228685 L581.8108900769906,473.84101742913293 M511.34419755829816,433.69056069018717 L581.8108900769906,473.84101742913293 M551.0501361007352,411.116279996888 L511.34419755829816,433.69056069018717 M551.0501361007352,411.116279996888 L670.9512393922209,479.13611153409965 M560.6265668097137,542.6913404965951 L670.9512393922209,479.13611153409965 M560.6265668097137,542.6913404965951 L558.3955726984027,542.8471737555021 M558.3955726984027,542.8471737555021 L556.2949195196957,543.3056408314026 M556.2949195196957,543.3056408314026 L554.4465463356007,544.0401739151869 M554.4465463356007,544.0401739151869 L552.9578045705713,545.0081891023149 M552.9578045705713,545.0081891023149 L551.915237522903,546.1535404882162 M551.915237522903,546.1535404882162 L551.3795454623886,547.4097563351959 M551.3795454623886,547.4097563351959 L551.3820366761779,548.7038840377097 M551.3820366761779,548.7038840377097 L551.9227584323241,549.9607114479147 M551.9227584323241,549.9607114479147 L552.9704639989764,551.1071469176632 M552.9704639989764,551.1071469176632 L554.4643705553473,552.0764685171578 M554.4643705553473,552.0764685171578 L556.3176836032351,552.812232270091 M556.3176836032351,552.812232270091 L558.4226262610083,553.2715731812655 M558.4226262610083,553.2715731812655 L560.6567180939937,553.4277202463786 M591.6340454209353,571.2336220337462 L560.6567180939937,553.4277202463786 M591.6340454209353,571.2336220337462 L400.24055118294405,611.7935584969109 M400.24055118294405,611.7935584969109 L471.2018861774463,502.00869578695733 M581.8108900769906,473.84101742913293 L581.9220136533199,427.4240664981045 M511.34419755829816,433.69056069018717 L511.30071256993006,387.3653044315719 M551.0501361007352,411.116279996888 L551.0934316307628,364.84287663481723 M670.9512393922209,479.13611153409965 L671.2583129339084,432.7071184841322 M560.6265668097137,542.6913404965951 L560.691588274429,496.1187317809576 M560.6567180939937,553.4277202463786 L560.7218731056371,506.83101858181607 M591.6340454209353,571.2336220337462 L591.7679902991738,524.5970701434024 M400.24055118294405,611.7935584969109 L399.94903882035027,565.0667307975148" stroke="black"  stroke-width="4"  fill="red"/>
<path d="M561.0210567847789,260.13192213524974 L560.9545751052397,307.7504318304343 M560.9854030961162,318.3631166307425 L558.7263622323655,318.2087668127877 M558.7263622323655,318.2087668127877 L556.5979050536457,317.75471319681617 M556.5979050536457,317.75471319681617 L554.7238818926038,317.0274194611119 M554.7238818926038,317.0274194611119 L553.2132747863229,316.06925830678625 M553.2132747863229,316.06925830678625 L552.1538482564649,314.93602506602633 M552.1538482564649,314.93602506602633 L551.6070638684298,313.69367432689 M551.6070638684298,313.69367432689 L551.6045167514557,312.4144564118692 M551.6045167514557,312.4144564118692 L552.1461585363429,311.1727169389204 M552.1461585363429,311.1727169389204 L553.200331243021,310.0405672437915 M553.200331243021,310.0405672437915 L554.7056576395257,309.0837118669444 M554.7056576395257,309.0837118669444 L556.5746300624403,308.35764820032136 M556.5746300624403,308.35764820032136 L558.6987014848007,307.90446798215225 M558.6987014848007,307.90446798215225 L560.9545751052397,307.7504318304343 M561.0520228487903,270.7188807994695 L560.9854030961162,318.3631166307425 M561.0210567847789,260.13192213524974 L558.760140525015,260.28558453799303 M558.760140525015,260.28558453799303 L556.6313226569685,260.7376652324155 M556.6313226569685,260.7376652324155 L554.7581751662855,261.46196748123646 M554.7581751662855,261.46196748123646 L553.2494874033735,262.4165018944623 M553.2494874033735,262.4165018944623 L552.1929624895149,263.5459059445747 M552.1929624895149,263.5459059445747 L551.6501148651419,264.784634641923 M551.6501148651419,264.784634641923 L551.652673388418,266.0607516120999 M551.652673388418,266.0607516120999 L552.2006866532718,267.3000914584387 M552.2006866532718,267.3000914584387 L553.262488916593,268.4305788441018 M553.262488916593,268.4305788441018 L554.7764810409242,269.38641878437977 M554.7764810409242,269.38641878437977 L556.6547018922006,270.11195086597786 M556.6547018922006,270.11195086597786 L558.787925160737,270.56490478813896 M558.787925160737,270.56490478813896 L561.0520228487903,270.7188807994695 M623.219169792075,225.2672532215895 L623.0146396801904,272.8006945572498 M623.219169792075,225.2672532215895 L561.0210567847789,260.13192213524974 M623.0146396801904,272.8006945572498 L560.9545751052397,307.7504318304343 M714.0826002677829,313.0540272323474 L641.8064235228496,272.8006978344099 M641.8064235228496,272.8006978344099 L641.5197749718695,271.54092524043193 M641.5197749718695,271.54092524043193 L640.7039288672141,270.35464750489285 M640.7039288672141,270.35464750489285 L639.4064399887512,269.3107391002726 M639.4064399887512,269.3107391002726 L637.702786833316,268.469761444822 M637.702786833316,268.469761444822 L635.691954357211,267.8804762143195 M635.691954357211,267.8804762143195 L633.4906877216449,267.5770465940338 M633.4906877216449,267.5770465940338 L631.2267498641365,267.57704441149724 M631.2267498641365,267.57704441149724 L629.0315085885575,267.8804773056528 M629.0315085885575,267.8804773056528 L627.0323664206431,268.46976035336274 M627.0323664206431,268.46976035336274 L625.3453967064331,269.31073800863317 M625.3453967064331,269.31073800863317 L624.0686131614993,270.3546485967556 M624.0686131614993,270.3546485967556 L623.2762986333034,271.54092305619827 M623.2762986333034,271.54092305619827 L623.0146396801904,272.8006945572498 M560.9854030961162,318.3631166307425 L592.3097623146193,335.9644098779835 M398.76989658019465,376.0607627534859 L592.3097623146193,335.9644098779835 M470.5350987436093,267.5386984804657 L398.76989658019465,376.0607627534859 M470.5350987436093,267.5386984804657 L501.54923980971347,284.9656788029665 M501.54923980971347,284.9656788029665 L501.8189570816267,286.22876932609006 M501.8189570816267,286.22876932609006 L502.619899159223,287.41874004719773 M502.619899159223,287.41874004719773 L503.9056655390242,288.4663590623445 M503.9056655390242,288.4663590623445 L505.60160351970916,289.3106385253931 M505.60160351970916,289.3106385253931 L507.60912990972264,289.90240255558865 M507.60912990972264,289.90240255558865 L509.81145710375944,290.2071652180566 M509.81145710375944,290.2071652180566 L512.080422633671,290.2071656633544 M512.080422633671,290.2071656633544 L514.2839594423165,289.902401870556 M514.2839594423165,289.902401870556 L516.2938326327253,289.3106390048604 M516.2938326327253,289.3106390048604 L517.9931212563329,288.46635947324864 M517.9931212563329,288.46635947324864 L519.2830446891182,287.41874018413785 M519.2830446891182,287.41874018413785 L520.0887066662654,286.228769189182 M520.0887066662654,286.228769189182 L520.3634376097531,284.9656788029665 M520.3634376097531,284.9656788029665 L631.9108672838413,222.42612193322887 M631.9108672838413,222.42612193322887 L754.221281102082,290.2456805704812 M754.221281102082,290.2456805704812 L714.0826002677829,313.0540272323474 M592.4467235963828,288.2776150715789 L592.3097623146193,335.9644098779835 M561.0520228487903,270.7188807994695 L592.4467235963828,288.2776150715789 M623.219169792075,225.2672532215895 L623.481386361988,224.01055796796635 M623.481386361988,224.01055796796635 L624.275441916509,222.82718091505248 M624.275441916509,222.82718091505248 L625.5550480688362,221.78582052519104 M625.5550480688362,221.78582052519104 L627.24575759098,220.9468976630227 M627.24575759098,220.9468976630227 L629.2493395320689,220.3590546169113 M629.2493395320689,220.3590546169113 L631.4494630141428,220.05636326560483 M631.4494630141428,220.05636326560483 L633.7184425589455,220.05636544280745 M633.7184425589455,220.05636544280745 L635.9246182546505,220.35905352824517 M635.9246182546505,220.35905352824517 L637.9399426325492,220.94689875181513 M637.9399426325492,220.94689875181513 L639.647409994808,221.7858216141634 M639.647409994808,221.7858216141634 L640.9478138322256,222.82717982585672 M640.9478138322256,222.82717982585672 L641.765505926574,224.01056014686588 M641.765505926574,224.01056014686588 L642.0528235744152,225.2672564907478 M398.47179362039174,328.2775211940067 L592.4467235963828,288.2776150715789 M470.39995936154804,220.01811104892622 L398.47179362039174,328.2775211940067 M470.39995936154804,220.01811104892622 L501.483054079401,237.40256726316312 M520.3392218581307,237.40256726316312 L520.063874978315,238.66258068720464 M520.063874978315,238.66258068720464 L519.2564124301307,239.8496534790927 M519.2564124301307,239.8496534790927 L517.9636077609712,240.89472177687495 M517.9636077609712,240.89472177687495 L516.2605243702315,241.7369458049196 M516.2605243702315,241.7369458049196 L514.2461635279412,242.32726813543775 M514.2461635279412,242.32726813543775 L512.0377074974296,242.6312900977453 M512.0377074974296,242.6312900977453 L509.763677844478,242.63128965353138 M509.763677844478,242.63128965353138 L507.55643683306204,242.32726881880293 M507.55643683306204,242.32726881880293 L505.5444332803826,241.73694532661943 M505.5444332803826,241.73694532661943 L503.8447155020629,240.89472136697137 M503.8447155020629,240.89472136697137 L502.5560864576956,239.84965334248633 M502.5560864576956,239.84965334248633 L501.75336489760736,238.6625808237791 M501.75336489760736,238.6625808237791 L501.483054079401,237.40256726316312 M632.13410879364,175.0162297582379 L520.3392218581307,237.40256726316312 M754.7190040423043,242.66971125799267 L632.13410879364,175.0162297582379 M754.7190040423043,242.66971125799267 L714.4916499788403,265.4226549932938 M714.4916499788403,265.4226549932938 L642.0528235744152,225.2672564907478 M642.0528235744152,225.2672564907478 L641.8064235228496,272.8006978344099 M714.4916499788403,265.4226549932938 L714.0826002677829,313.0540272323474 M754.7190040423043,242.66971125799267 L754.221281102082,290.2456805704812 M632.13410879364,175.0162297582379 L631.9108672838413,222.42612193322887 M520.3392218581307,237.40256726316312 L520.3634376097531,284.9656788029665 M501.483054079401,237.40256726316312 L501.54923980971347,284.9656788029665 M470.39995936154804,220.01811104892622 L470.5350987436093,267.5386984804657 M398.47179362039174,328.2775211940067 L398.76989658019465,376.0607627534859" stroke="black"  stroke-width="4"  fill="red"/>
<path d="M442.8576307949815,372.5058624069193 L442.6574462812163,324.399845335186 M592.4467235963828,288.2776150715789 L592.5843002654334,240.3765564461031 M442.8576307949815,372.5058624069193 L592.4467235963828,288.2776150715789 M442.6574462812163,324.399845335186 L592.5843002654334,240.3765564461031 M561.0520228487906,270.7188807994695 L561.1189414182038,222.860941154851 M592.4467235963828,288.2776150715789 L561.0520228487906,270.7188807994695 M592.5843002654334,240.3765564461031 L561.1189414182038,222.860941154851 M561.0878363514753,212.3000462528828 L558.8218548617897,212.45333000638874 M558.8218548617897,212.45333000638874 L556.6882692914419,212.9042967602776 M556.6882692914419,212.9042967602776 L554.8109280412484,213.62681449332499 M554.8109280412484,213.62681449332499 L553.2988638692314,214.57899750271363 M553.2988638692314,214.57899750271363 L552.2399762294956,215.70561989076194 M552.2399762294956,215.70561989076194 L551.6959173856673,216.9412983087935 M551.6959173856673,216.9412983087935 L551.6984873920348,218.21427363778315 M551.6984873920348,218.21427363778315 L552.2477350687864,219.45056306754572 M552.2477350687864,219.45056306754572 L553.3119237426486,220.5782685455012 M553.3119237426486,220.5782685455012 L554.8293160869639,221.53175678865804 M554.8293160869639,221.53175678865804 L556.711753472526,222.25550407780537 M556.711753472526,222.25550407780537 L558.8497642197514,222.7073438607037 M558.8497642197514,222.7073438607037 L561.1189414182038,222.860941154851 M561.0210567847789,260.13192213524974 L561.0878363514753,212.3000462528828 M561.0520228487906,270.7188807994695 L558.787925160737,270.56490478813896 M558.787925160737,270.56490478813896 L556.6547018922006,270.11195086597786 M556.6547018922006,270.11195086597786 L554.7764810409242,269.38641878437977 M554.7764810409242,269.38641878437977 L553.262488916593,268.4305788441018 M553.262488916593,268.4305788441018 L552.2006866532718,267.3000914584387 M552.2006866532718,267.3000914584387 L551.652673388418,266.0607516120999 M551.652673388418,266.0607516120999 L551.6501148651419,264.784634641923 M551.6501148651419,264.784634641923 L552.1929624895149,263.5459059445747 M552.1929624895149,263.5459059445747 L553.2494874033735,262.4165018944623 M553.2494874033735,262.4165018944623 L554.7581751662855,261.46196748123646 M554.7581751662855,261.46196748123646 L556.6313226569685,260.7376652324155 M556.6313226569685,260.7376652324155 L558.760140525015,260.28558453799303 M558.760140525015,260.28558453799303 L561.0210567847789,260.13192213524974 M673.1294753037143,149.79057612860728 L561.0878363514753,212.3000462528828 M672.8141503252077,197.46717227919402 L673.1294753037143,149.79057612860728 M561.0210567847789,260.13192213524974 L672.8141503252077,197.46717227919402 M551.3572274422165,82.90314796338828 L673.1294753037143,149.79057612860728 M551.3127762723922,130.41167620846971 L551.3572274422165,82.90314796338828 M672.8141503252077,197.46717227919402 L551.3127762723922,130.41167620846971 M511.08040172087215,152.66461984655024 L511.0357534481783,105.10009811925681 M551.3127762723922,130.41167620846971 L511.08040172087215,152.66461984655024 M551.3572274422165,82.90314796338828 L511.0357534481783,105.10009811925681 M582.4850352719011,192.24672874436462 L582.5991433215552,144.58314630233914 M511.08040172087215,152.66461984655024 L582.4850352719011,192.24672874436462 M511.0357534481783,105.10009811925681 L582.5991433215552,144.58314630233914 M582.6522980715124,155.00339803745567 L584.9050840687121,154.85184656776732 M584.9050840687121,154.85184656776732 L587.0252084413131,154.406028456632 M587.0252084413131,154.406028456632 L588.8893109490631,153.69192123579006 M588.8893109490631,153.69192123579006 L590.3889783510629,152.75113474177033 M590.3889783510629,152.75113474177033 L591.4370848330725,151.63845134771023 M591.4370848330725,151.63845134771023 L591.9728321273019,150.41862809203252 M591.9728321273019,150.41862809203252 L591.9652574595234,149.1626067528187 M591.9652574595234,149.1626067528187 L591.4150135391815,147.94337933637706 M591.4150135391815,147.94337933637706 L590.3542351094745,146.83175686454064 M590.3542351094745,146.83175686454064 L588.8446964978896,145.89225008813884 M588.8446964978896,145.89225008813884 L586.9741451812486,145.17935037648445 M586.9741451812486,145.17935037648445 L584.8512145943096,144.73438818555834 M584.8512145943096,144.73438818555834 L582.5991433215552,144.58314630233914 M582.537954077897,202.6930093664836 L582.6522980715124,155.00339803745567 M582.4850352719011,192.24672874436462 L584.7321032458087,192.39834875997838 M584.7321032458087,192.39834875997838 L586.8503135924424,192.84442337920382 M586.8503135924424,192.84442337920382 L588.7167014112872,193.55910519426703 M588.7167014112872,193.55910519426703 L590.2228749065974,194.50096020225732 M590.2228749065974,194.50096020225732 L591.2812822611721,195.61536059291234 M591.2812822611721,195.61536059291234 L591.8302874729578,196.83763420234925 M591.8302874729578,196.83763420234925 L591.8378285250245,198.09679297563687 M591.8378285250245,198.09679297563687 L591.3032555750304,199.31966257818107 M591.3032555750304,199.31966257818107 L590.2574639253228,200.43512417789853 M590.2574639253228,200.43512417789853 L588.7611178207338,201.37825924950008 M588.7611178207338,201.37825924950008 L586.9011501754819,202.0941489050369 M586.9011501754819,202.0941489050369 L584.7857335992212,202.54107967829125 M584.7857335992212,202.54107967829125 L582.537954077897,202.6930093664836 M520.3392218581307,237.40256726316312 L520.3148978446386,189.6268143209432 M582.537954077897,202.6930093664836 L520.3392218581307,237.40256726316312 M582.6522980715124,155.00339803745567 L520.3148978446386,189.6268143209432 M501.4165724511529,189.6268143209432 L501.6874794328002,190.88371074287576 M501.6874794328002,190.88371074287576 L502.49198839854654,192.06784720847924 M502.49198839854654,192.06784720847924 L503.7834928806638,193.11033091928823 M503.7834928806638,193.11033091928823 L505.4870073396322,193.95047252024534 M505.4870073396322,193.95047252024534 L507.5035080659651,194.53933665118186 M507.5035080659651,194.53933665118186 L509.71568486733105,194.842605964043 M509.71568486733105,194.842605964043 L511.99480129527615,194.84260640715885 M511.99480129527615,194.84260640715885 L514.2081985565263,194.539335969506 M514.2081985565263,194.539335969506 L516.2270671321473,193.95047299736297 M516.2270671321473,193.95047299736297 L517.9339622735722,193.11033132817823 M517.9339622735722,193.11033132817823 L519.2296610770143,192.06784734474783 M519.2296610770143,192.06784734474783 L520.0389322610231,190.88371060663914 M520.0389322610231,190.88371060663914 L520.3148978446386,189.6268143209432 M501.48305407940103,237.40256726316312 L501.4165724511529,189.6268143209432 M520.3392218581307,237.40256726316312 L520.063874978315,238.66258068720464 M520.063874978315,238.66258068720464 L519.2564124301307,239.8496534790927 M519.2564124301307,239.8496534790927 L517.9636077609712,240.89472177687495 M517.9636077609712,240.89472177687495 L516.2605243702315,241.7369458049196 M516.2605243702315,241.7369458049196 L514.2461635279412,242.32726813543775 M514.2461635279412,242.32726813543775 L512.0377074974296,242.6312900977453 M512.0377074974296,242.6312900977453 L509.763677844478,242.63128965353138 M509.763677844478,242.63128965353138 L507.55643683306204,242.32726881880293 M507.55643683306204,242.32726881880293 L505.5444332803826,241.73694532661943 M505.5444332803826,241.73694532661943 L503.8447155020629,240.89472136697137 M503.8447155020629,240.89472136697137 L502.5560864576956,239.84965334248633 M502.5560864576956,239.84965334248633 L501.75336489760736,238.6625808237791 M501.75336489760736,238.6625808237791 L501.48305407940103,237.40256726316312 M470.3999593615481,220.01811104892622 L470.2642168446288,172.28543649431788 M501.48305407940103,237.40256726316312 L470.3999593615481,220.01811104892622 M501.4165724511529,189.6268143209432 L470.2642168446288,172.28543649431788 M320.81908223714913,303.1201103256092 L320.34563410997083,255.18270849008343 M470.3999593615481,220.01811104892622 L320.81908223714913,303.1201103256092 M470.2642168446288,172.28543649431788 L320.34563410997083,255.18270849008343 M442.6574462812163,324.399845335186 L447.18512107633126,332.6258914838385 M447.18512107633126,332.6258914838385 L450.61095114806875,341.036407513005 M450.61095114806875,341.036407513005 L452.9131117036491,349.58492882965925 M452.9131117036491,349.58492882965925 L454.075931737537,358.2239569196123 M454.075931737537,358.2239569196123 L454.0899836631775,366.9052759640183 M454.0899836631775,366.9052759640183 L452.9523128294734,375.58017310802177 M452.9523128294734,375.58017310802177 L450.6664130518088,384.1997379987878 M450.6664130518088,384.1997379987878 L447.2423219564219,392.7151110325476 M447.2423219564219,392.7151110325476 L442.69663401946184,401.0778022483048 M442.69663401946184,401.0778022483048 L437.0524302741013,409.2399358206197 M437.0524302741013,409.2399358206197 L430.3392334580585,417.15459207176065 M430.3392334580585,417.15459207176065 L422.59290877695736,424.7760375989726 M422.59290877695736,424.7760375989726 L413.8554344752795,432.0600564588602 M413.8554344752795,432.0600564588602 L404.17481541924434,438.96419046346307 M404.17481541924434,438.96419046346307 L393.6047438215219,445.4480471943821 M393.6047438215219,445.4480471943821 L382.20432815914654,451.473565306116 M382.20432815914654,451.473565306116 L370.0377940944956,457.00521734203863 M370.0377940944956,457.00521734203863 L357.17413855070924,462.0103232317575 M357.17413855070924,462.0103232317575 L343.6866933154663,466.4591521477449 M343.6866933154663,466.4591521477449 L329.65272015767164,470.32527074284786 M329.65272015767164,470.32527074284786 L315.1528363560234,473.5856498088956 M315.1528363560234,473.5856498088956 L300.2706698922917,476.22083134931376 M300.2706698922917,476.22083134931376 L285.092353613652,478.2150033669666 M285.092353613652,478.2150033669666 L269.7057158057934,479.5562719315288 M269.7057158057934,479.5562719315288 L254.20012545872856,480.2365628617975 M254.20012545872856,480.2365628617975 L238.66551872727794,480.25183007166635 M238.66551872727794,480.25183007166635 L223.19222109857043,479.6019339643766 M223.19222109857043,479.6019339643766 L207.87004288678446,478.2908030372507 M207.87004288678446,478.2908030372507 L192.78781878496326,476.32632058281337 M192.78781878496326,476.32632058281337 L178.03300393149246,473.7201973877123 M178.03300393149246,473.7201973877123 L163.69082809066623,470.4880657512289 M163.69082809066623,470.4880657512289 L149.84401265287863,466.6492146006032 M149.84401265287863,466.6492146006032 L136.5721290867163,462.22651837787237 M136.5721290867163,462.22651837787237 L123.95111470294677,457.2462965364241 M123.95111470294677,457.2462965364241 L112.05289006092221,451.7380715355511 M112.05289006092221,451.7380715355511 L100.94484380589967,445.7344274470269 M100.94484380589967,445.7344274470269 L90.68951017377276,439.2707462673621 M90.68951017377276,439.2707462673621 L81.34416487946021,432.3850010373595 M81.34416487946021,432.3850010373595 L72.9605658655031,425.11747623003845 M72.9605658655031,425.11747623003845 L65.58460425318049,417.5105424323317 M65.58460425318049,417.5105424323317 L59.25618260393105,409.60833447146376 M59.25618260393105,409.60833447146376 L54.00892042844805,401.4565132462843 M54.00892042844805,401.4565132462843 L49.87004256029729,393.1019830993331 M49.87004256029729,393.1019830993331 L46.86039199380838,384.59253314662703 M46.86039199380838,384.59253314662703 L44.99409456335263,375.9766877826745 M44.99409456335263,375.9766877826745 L44.27885532212457,367.30325789360563 M44.27885532212457,367.30325789360563 L44.71585089358575,358.62114632944827 M44.71585089358575,358.62114632944827 L46.2996376170222,349.97913056876683 M46.2996376170222,349.97913056876683 L49.01853360494931,341.4254096758325 M49.01853360494931,341.4254096758325 L52.85447748958882,333.00755931567164 M52.85447748958882,333.00755931567164 L57.783461781155836,324.7720530252084 M57.783461781155836,324.7720530252084 L63.77539848752451,316.7642391309199 M63.77539848752451,316.7642391309199 L70.79462309884508,309.0279602495703 M70.79462309884508,309.0279602495703 L78.80003233413237,301.60533997119046 M78.80003233413237,301.60533997119046 L87.7453596236382,294.53665863646273 M87.7453596236382,294.53665863646273 L97.57933520003269,287.8600989126098 M97.57933520003269,287.8600989126098 L108.24624286188794,281.6115835009937 M108.24624286188794,281.6115835009937 L119.68603806162912,275.8245880145023 M119.68603806162912,275.8245880145023 L131.83481642586264,270.5299991878612 M131.83481642586264,270.5299991878612 L144.62507957473878,265.75599061589185 M144.62507957473878,265.75599061589185 L157.98609979151854,261.527906183248 M157.98609979151854,261.527906183248 L171.8443540019753,257.86809727993926 M171.8443540019753,257.86809727993926 L186.12383170027098,254.7958897641901 M186.12383170027098,254.7958897641901 L200.74650243365582,252.3274630971436 M200.74650243365582,252.3274630971436 L215.63260673015583,250.4757912961452 M215.63260673015583,250.4757912961452 L230.70114449080853,249.2506051960205 M230.70114449080853,249.2506051960205 L245.87020059031065,248.65833141319868 M245.87020059031065,248.65833141319868 L261.05740713822127,248.70206938536265 M261.05740713822127,248.70206938536265 L276.1802918634216,249.38160618632745 M276.1802918634216,249.38160618632745 L291.15673020670954,250.693358756595 M291.15673020670954,250.693358756595 L305.9052686090148,252.63045080881537 M305.9052686090148,252.63045080881537 L320.34563410997083,255.18270849008343 M320.81908223714913,303.1201103256092 L306.4110114555592,300.56159477940156 M306.4110114555592,300.56159477940156 L291.695475600022,298.61975126119387 M291.695475600022,298.61975126119387 L276.75257367027297,297.3047801695716 M276.75257367027297,297.3047801695716 L261.66358285531066,296.6235757553455 M261.66358285531066,296.6235757553455 L246.51044991634473,296.5797304412788 M246.51044991634473,296.5797304412788 L231.37546845122813,297.1734577129412 M231.37546845122813,297.1734577129412 L216.3408276491058,298.4016500289637 M216.3408276491058,298.4016500289637 L201.48826451739637,300.25786398283185 M201.48826451739637,300.25786398283185 L186.89860249445064,302.73234334637317 M186.89860249445064,302.73234334637317 L172.65142642701602,305.81208029536947 M172.65142642701602,305.81208029536947 L158.8245951313746,309.4808532932826 M158.8245951313746,309.4808532932826 L145.49395099164346,313.7192863466912 M145.49395099164346,313.7192863466912 L132.73285342015186,318.5049702407324 M132.73285342015186,318.5049702407324 L120.6118715307581,323.81249574008996 M120.6118715307581,323.81249574008996 L109.1983510750564,329.6136168617511 M109.1983510750564,329.6136168617511 L98.55605055306307,335.8773678253461 M98.55605055306307,335.8773678253461 L88.7448759772085,342.5701877169661 M88.7448759772085,342.5701877169661 L79.8204134193926,349.6560627248831 M79.8204134193926,349.6560627248831 L71.83381123158773,357.0967138174332 M71.83381123158773,357.0967138174332 L64.83122460363279,364.8517595268971 M64.83122460363279,364.8517595268971 L58.85365593406823,372.8789710831094 M58.85365593406823,372.8789710831094 L53.936680080449946,381.1343970221242 M53.936680080449946,381.1343970221242 L50.1103070648644,389.5725770966319 M50.1103070648644,389.5725770966319 L47.39847940803418,398.14692376034793 M47.39847940803418,398.14692376034793 L45.81920636319251,406.8097453593732 M45.81920636319251,406.8097453593732 L45.3841317584737,415.5127260551262 M45.3841317584737,415.5127260551262 L46.09867511288587,424.20697094266893 M46.09867511288587,424.20697094266893 L47.96165067793322,432.8434601925926 M47.96165067793322,432.8434601925926 L50.96535929273017,441.37326690110945 M50.96535929273017,441.37326690110945 L55.09569599091196,449.74775206261216 M55.09569599091196,449.74775206261216 L60.331854519937224,457.9190143926529 M60.331854519937224,457.9190143926529 L66.64666207971669,465.84004012739064 M66.64666207971669,465.84004012739064 L74.00656670136169,473.46506248334936 M74.00656670136169,473.46506248334936 L82.37174877993141,480.749844879461 M82.37174877993141,480.749844879461 L91.69641502712852,487.6519195827766 M91.69641502712852,487.6519195827766 L101.928920048664,494.1309102483057 M101.928920048664,494.1309102483057 L113.0121146751377,500.14875766696304 M113.0121146751377,500.14875766696304 L124.88360467599455,505.66999993125734 M124.88360467599455,505.66999993125734 L137.47615396462578,510.6619796950678 M137.47615396462578,510.6619796950678 L150.71800634787792,515.0951083755913 M150.71800634787792,515.0951083755913 L164.53339946028058,518.9430077756093 M164.53339946028058,518.9430077756093 L178.84294641215138,522.1827525613045 M178.84294641215138,522.1827525613045 L193.56411881114394,524.7950110071727 M193.56411881114394,524.7950110071727 L208.6118867053586,526.7641161985032 M208.6118867053586,526.7641161985032 L223.89900079380584,528.0783314743858 M223.89900079380584,528.0783314743858 L239.33683612177907,528.7297561376545 M239.33683612177907,528.7297561376545 L254.8357949080639,528.7144530214412 M254.8357949080639,528.7144530214412 L270.3057657468389,528.0325620373951 M270.3057657468389,528.0325620373951 L285.6570258278107,526.6881381912799 M285.6570258278107,526.6881381912799 L300.80041817056394,524.6892734926272 M300.80041817056394,524.6892734926272 L315.6483227284955,522.0478881534563 M315.6483227284955,522.0478881534563 L330.11481059423795,518.7798291883554 M330.11481059423795,518.7798291883554 L344.11645139340567,514.9045977725024 M344.11645139340567,514.9045977725024 L357.57281781676613,510.4452743563597 M357.57281781676613,510.4452743563597 L370.4068295097853,505.4283512892117 M370.4068295097853,505.4283512892117 L382.54532612933235,499.8836260081443 M382.54532612933235,499.8836260081443 L393.9194712214572,493.84385208355826 M393.9194712214572,493.84385208355826 L404.465187579475,487.34463723064954 M404.465187579475,487.34463723064954 L414.12350236137826,480.4241291805112 M414.12350236137826,480.4241291805112 L422.8408455032184,473.1228124921767 M422.8408455032184,473.1228124921767 L430.569320227373,465.4832427247051 M430.569320227373,465.4832427247051 L437.2670416162126,457.54973778934175 M437.2670416162126,457.54973778934175 L442.8982229323819,449.36813717094566 M442.8982229323819,449.36813717094566 L447.4334046458273,440.9854700329301 M447.4334046458273,440.9854700329301 L450.84955358730525,432.4497246067314 M450.84955358730525,432.4497246067314 L453.13010785514956,423.8095054144224 M453.13010785514956,423.8095054144224 L454.2650471183742,415.11378822769177 M454.2650471183742,415.11378822769177 L454.2508797837475,406.41160043118373 M454.2508797837475,406.41160043118373 L453.090548048678,397.75177218492684 M453.090548048678,397.75177218492684 L450.7934524938269,389.18263615578576 M450.7934524938269,389.18263615578576 L447.3752232622569,380.7518066928277 M447.3752232622569,380.7518066928277 L442.8576307949815,372.5058624069193 M271.086056532257,399.5230579987776 L274.6883656788193,402.0572103760258 M274.6883656788193,402.0572103760258 L277.34147358576524,404.94992903543664 M277.34147358576524,404.94992903543664 L278.9428476425569,408.09053458550693 M278.9428476425569,408.09053458550693 L279.4300329093983,411.3586876488669 M279.4300329093983,411.3586876488669 L278.78325989669315,414.6289158001772 M278.78325989669315,414.6289158001772 L277.0263763634674,417.77541126254977 M277.0263763634674,417.77541126254977 L274.22600172796933,420.6769350820298 M274.22600172796933,420.6769350820298 L270.4891873805557,423.2214739026904 M270.4891873805557,423.2214739026904 L265.9592987382166,425.31067461820555 M265.9592987382166,425.31067461820555 L260.8106908023814,426.8636284996631 M260.8106908023814,426.8636284996631 L255.24180795952833,427.82016335173853 M255.24180795952833,427.82016335173853 L249.4675464797367,428.143185947406 M249.4675464797367,428.143185947406 L243.71087402682778,427.82015541634354 M243.71087402682778,427.82015541634354 L238.19402332012817,426.8636236826346 M238.19402332012817,426.8636236826346 L233.12989866581154,425.31067376839667 M233.12989866581154,425.31067376839667 L228.71371556704784,423.2214739026904 M228.71371556704784,423.2214739026904 L225.11531278003275,420.6769381952076 M225.11531278003275,420.6769381952076 L222.47280996088065,417.7754092825473 M222.47280996088065,417.7754092825473 L220.88712507223246,414.6289078849836 M220.88712507223246,414.6289078849836 L220.4182785189102,411.3586966890832 M220.4182785189102,411.3586966890832 L221.08327781948714,408.09054474932253 M221.08327781948714,408.09054474932253 L222.85551406549146,404.94993608935386 M222.85551406549146,404.94993608935386 L225.66601441034908,402.0572225019715 M225.66601441034908,402.0572225019715 L229.40621823262816,399.5230579987776 M229.40621823262816,399.5230579987776 L233.93215201960464,397.4442677749992 M233.93215201960464,397.4442677749992 L239.0701549209016,395.90012415302976 M239.0701549209016,395.90012415302976 L244.62336474572533,394.94947612455985 M244.62336474572533,394.94947612455985 L250.37928742258276,394.6285116986784 M250.37928742258276,394.6285116986784 L256.1177335881603,394.9494659865697 M256.1177335881603,394.9494659865697 L261.6192153955097,395.9001199280891 M261.6192153955097,395.9001199280891 L266.6732143239698,397.4442596043374 M266.6732143239698,397.4442596043374 L271.086056532257,399.5230579987776 M271.086056532257,399.5230579987776 L270.49516999496774,351.3519574916428 M270.49516999496774,351.3519574916428 L266.07242532014664,349.27815547261577 M266.07242532014664,349.27815547261577 L261.0070404088712,347.7377283511736 M261.0070404088712,347.7377283511736 L255.4931241317348,346.789360574816 M255.4931241317348,346.789360574816 L249.74166884983944,346.4691782183315 M249.74166884983944,346.4691782183315 L243.9726576395762,346.78937068842396 M243.9726576395762,346.78937068842396 L238.40677818578533,347.73773256595473 M238.40677818578533,347.73773256595473 L233.25700732690532,349.2781636236358 M233.25700732690532,349.2781636236358 L228.72065674739815,351.3519574916428 M228.72065674739815,351.3519574916428 L224.9717864451889,353.8800337153441 M224.9717864451889,353.8800337153441 L222.15470391296847,356.7658010604107 M222.15470391296847,356.7658010604107 L220.37822524961587,359.898872367467 M220.37822524961587,359.898872367467 L219.71149026474234,363.15918545005917 M219.71149026474234,363.15918545005917 L220.18117931829633,366.42155754066914 M220.18117931829633,366.42155754066914 L221.7702572024452,369.56052081049785 M221.7702572024452,369.56052081049785 L224.41857727182884,372.455102330362 M224.41857727182884,372.455102330362 L228.0250008702319,374.9935484664994 M228.0250008702319,374.9935484664994 L232.45110103812954,377.0777505925 M232.45110103812954,377.0777505925 L237.52665723374088,378.6269868137599 M237.52665723374088,378.6269868137599 L243.05601198822563,379.58123164349803 M243.05601198822563,379.58123164349803 L248.8257764561523,379.90348995443037 M248.8257764561523,379.90348995443037 L254.61321013731035,379.58123955992255 M254.61321013731035,379.58123955992255 L260.19483433985476,378.62699161927077 M260.19483433985476,378.62699161927077 L265.3552590692558,377.0777514402765 M265.3552590692558,377.0777514402765 L269.89558308517246,374.9935484664994 M269.89558308517246,374.9935484664994 L273.6410491973305,372.4550992246365 M273.6410491973305,372.4550992246365 L276.4479604616995,369.56052278575805 M276.4479604616995,369.56052278575805 L278.20901687177684,366.42156543689464 M278.20901687177684,366.42156543689464 L278.8574426702759,363.1591764315198 M278.8574426702759,363.1591764315198 L278.36933123585595,359.8988622280373 M278.36933123585595,359.8988622280373 L276.76449241567144,356.7657940234277 M276.76449241567144,356.7657940234277 L274.1055184221881,353.8800216185238 M274.1055184221881,353.8800216185238 L270.49516999496774,351.3519574916428" stroke="black"  stroke-width="4"  fill="red"/>
<path d="M561.1549159155784,164.25329268518578 L561.0878363514753,212.3000462528828 M561.1189414182038,222.86094115485105 L558.8497642197514,222.7073438607037 M558.8497642197514,222.7073438607037 L556.711753472526,222.25550407780537 M556.711753472526,222.25550407780537 L554.8293160869639,221.53175678865804 M554.8293160869639,221.53175678865804 L553.3119237426486,220.5782685455012 M553.3119237426486,220.5782685455012 L552.2477350687864,219.45056306754572 M552.2477350687864,219.45056306754572 L551.6984873920348,218.21427363778315 M551.6984873920348,218.21427363778315 L551.6959173856673,216.9412983087935 M551.6959173856673,216.9412983087935 L552.2399762294956,215.70561989076194 M552.2399762294956,215.70561989076194 L553.2988638692314,214.57899750271363 M553.2988638692314,214.57899750271363 L554.8109280412484,213.62681449332499 M554.8109280412484,213.62681449332499 L556.6882692914419,212.9042967602776 M556.6882692914419,212.9042967602776 L558.8218548617897,212.45333000638874 M558.8218548617897,212.45333000638874 L561.0878363514753,212.3000462528828 M561.1861609231853,174.78778238070618 L561.1189414182038,222.86094115485105 M561.1549159155784,164.25329268518578 L558.8838464453678,164.40619283380997 M558.8838464453678,164.40619283380997 L556.745471765591,164.85603106743795 M556.745471765591,164.85603106743795 L554.8639179318318,165.57674092566572 M554.8639179318318,165.57674092566572 L553.3484622015687,166.52654174690556 M553.3484622015687,166.52654174690556 L552.2872012428782,167.65034604865764 M552.2872012428782,167.65034604865764 L551.7419257616613,168.88293423699452 M551.7419257616613,168.88293423699452 L551.7445073286183,170.1527267682404 M551.7445073286183,170.1527267682404 L552.294994991742,171.38592581063065 M552.294994991742,171.38592581063065 L553.3615808290658,172.51081292045563 M553.3615808290658,172.51081292045563 L554.882388703212,173.46191863856407 M554.882388703212,173.46191863856407 L556.7690616008296,174.18385773512838 M556.7690616008296,174.18385773512838 L558.9118813673497,174.63456876986493 M558.9118813673497,174.63456876986493 L561.1861609231853,174.78778238070618 M623.630976374514,129.56210815693964 L623.4246132069089,177.5215574077721 M623.630976374514,129.56210815693964 L561.1549159155784,164.25329268518578 M623.4246132069089,177.5215574077721 L561.0878363514753,212.3000462528828 M642.3003238937695,177.5215606688245 L642.0123340251732,176.26798064201782 M642.0123340251732,176.26798064201782 L641.1927875719018,175.0875354646989 M641.1927875719018,175.0875354646989 L639.8894556516741,174.04876064682702 M639.8894556516741,174.04876064682702 L638.1781569688922,173.2119193242059 M638.1781569688922,173.2119193242059 L636.1583205794535,172.62553284922285 M636.1583205794535,172.62553284922285 L633.9472138830644,172.3235959488922 M633.9472138830644,172.3235959488922 L631.673170149541,172.32359377709292 M631.673170149541,172.32359377709292 L629.4681427003854,172.6255339351872 M629.4681427003854,172.6255339351872 L627.4601012257871,173.2119182381152 M627.4601012257871,173.2119182381152 L625.7656352807305,174.0487595605564 M625.7656352807305,174.0487595605564 L624.4831940162946,175.08753655119264 M624.4831940162946,175.08753655119264 L623.6873897699759,176.26797846852213 M623.6873897699759,176.26797846852213 L623.4246132069089,177.5215574077721 M714.902533489538,217.5777478441389 L642.3003238937695,177.5215606688245 M755.2189533185733,194.8809325954133 L714.902533489538,217.5777478441389 M632.3583422146817,127.39568498059282 L755.2189533185733,194.8809325954133 M520.3148978446386,189.6268143209432 L632.3583422146817,127.39568498059282 M501.41657245115283,189.6268143209432 L501.6874794328002,190.88371074287576 M501.6874794328002,190.88371074287576 L502.49198839854654,192.06784720847924 M502.49198839854654,192.06784720847924 L503.7834928806638,193.11033091928823 M503.7834928806638,193.11033091928823 L505.4870073396322,193.95047252024534 M505.4870073396322,193.95047252024534 L507.5035080659651,194.53933665118186 M507.5035080659651,194.53933665118186 L509.71568486733105,194.842605964043 M509.71568486733105,194.842605964043 L511.99480129527615,194.84260640715885 M511.99480129527615,194.84260640715885 L514.2081985565263,194.539335969506 M514.2081985565263,194.539335969506 L516.2270671321473,193.95047299736297 M516.2270671321473,193.95047299736297 L517.9339622735722,193.11033132817823 M517.9339622735722,193.11033132817823 L519.2296610770143,192.06784734474783 M519.2296610770143,192.06784734474783 L520.0389322610231,190.88371060663914 M520.0389322610231,190.88371060663914 L520.3148978446386,189.6268143209432 M470.2642168446288,172.28543649431788 L501.41657245115283,189.6268143209432 M470.2642168446288,172.28543649431788 L398.17234598341673,280.27873989558583 M398.17234598341673,280.27873989558583 L592.5843002654334,240.3765564461031 M561.1189414182038,222.86094115485105 L592.5843002654334,240.3765564461031 M592.7224966921297,192.2597123424402 L592.5843002654334,240.3765564461031 M561.1861609231853,174.78778238070618 L592.7224966921297,192.2597123424402 M623.630976374514,129.56210815693964 L623.8943153231455,128.3116860500058 M623.8943153231455,128.3116860500058 L624.6918759801752,127.13421742194123 M624.6918759801752,127.13421742194123 L625.9771649491106,126.09805740510888 M625.9771649491106,126.09805740510888 L627.6754040488552,125.26332466997155 M627.6754040488552,125.26332466997155 L629.6879249564337,124.67841806267342 M629.6879249564337,124.67841806267342 L631.897878286675,124.37723885672574 M631.897878286675,124.37723885672574 L634.1770088691787,124.37724102305134 M634.1770088691787,124.37724102305134 L636.3930686618697,124.67841697944584 M636.3930686618697,124.67841697944584 L638.4174373149408,125.2633257533252 M638.4174373149408,125.2633257533252 L640.1325845533256,126.09805848864266 M640.1325845533256,126.09805848864266 L641.4388577735867,127.13421633818416 M641.4388577735867,127.13421633818416 L642.2602670149206,128.3116882180276 M642.2602670149206,128.3116882180276 L642.5489322510952,129.56211140978087 M715.3152637967326,169.51779237931206 L642.5489322510952,129.56211140978087 M755.7211446778754,146.87783937153907 L715.3152637967326,169.51779237931206 M755.7211446778754,146.87783937153907 L632.5835745205272,79.56300662211765 M520.2904648038945,141.6369166588587 L632.5835745205272,79.56300662211765 M520.2904648038945,141.6369166588587 L520.0138777293537,142.89065517711947 M520.0138777293537,142.89065517711947 L519.2027897876224,144.07181758397513 M519.2027897876224,144.07181758397513 L517.9041838606975,145.11168355427034 M517.9041838606975,145.11168355427034 L516.1934598648488,145.94971570644148 M516.1934598648488,145.94971570644148 L514.1700633323593,146.53710028471556 M514.1700633323593,146.53710028471556 L511.95170267579664,146.83960939420962 M511.95170267579664,146.83960939420962 L509.6674766606865,146.83960895220605 M509.6674766606865,146.83960895220605 L507.4503419414324,146.53710096467992 M507.4503419414324,146.53710096467992 L505.4293238890192,145.94971523052175 M505.4293238890192,145.94971523052175 L503.72199574712835,145.1116831464071 M503.72199574712835,145.1116831464071 L502.4276029639341,144.07181744804885 M502.4276029639341,144.07181744804885 L501.62129861355606,142.89065531301395 M501.62129861355606,142.89065531301395 L501.34979283305046,141.6369166588587 M470.1278669354575,124.33917774112467 L501.34979283305046,141.6369166588587 M470.1278669354575,124.33917774112467 L397.8715440857152,232.0628827000623 M397.8715440857152,232.0628827000623 L592.7224966921297,192.2597123424402 M642.5489322510952,129.56211140978087 L642.3003238937695,177.5215606688245 M715.3152637967326,169.51779237931206 L714.902533489538,217.5777478441389 M755.7211446778754,146.87783937153907 L755.2189533185733,194.8809325954133 M632.5835745205272,79.56300662211765 L632.3583422146817,127.39568498059282 M520.2904648038945,141.6369166588587 L520.3148978446386,189.6268143209432 M501.34979283305046,141.6369166588587 L501.41657245115283,189.6268143209432 M470.1278669354575,124.33917774112467 L470.2642168446288,172.28543649431788 M397.8715440857152,232.0628827000623 L398.17234598341673,280.27873989558583" stroke="black"  stroke-width="4"  fill="red"/>
<path d="M520.3875458021447,332.31752902132257 L520.3634376097531,284.9656788029665 M501.54923980971347,284.9656788029665 L501.8189570816267,286.22876932609006 M501.8189570816267,286.22876932609006 L502.619899159223,287.41874004719773 M502.619899159223,287.41874004719773 L503.9056655390242,288.4663590623445 M503.9056655390242,288.4663590623445 L505.60160351970916,289.3106385253931 M505.60160351970916,289.3106385253931 L507.60912990972264,289.90240255558865 M507.60912990972264,289.90240255558865 L509.81145710375944,290.2071652180566 M509.81145710375944,290.2071652180566 L512.080422633671,290.2071656633544 M512.080422633671,290.2071656633544 L514.2839594423165,289.902401870556 M514.2839594423165,289.902401870556 L516.2938326327253,289.3106390048604 M516.2938326327253,289.3106390048604 L517.9931212563329,288.46635947324864 M517.9931212563329,288.46635947324864 L519.2830446891182,287.41874018413785 M519.2830446891182,287.41874018413785 L520.0887066662654,286.228769189182 M520.0887066662654,286.228769189182 L520.3634376097531,284.9656788029665 M501.61513156252124,332.3175290213227 L501.54923980971347,284.9656788029665 M520.3875458021447,332.31752902132257 L520.1134280455683,333.5836566336882 M520.1134280455683,333.5836566336882 L519.3095586271147,334.77648839573055 M519.3095586271147,334.77648839573055 L518.0225036166182,335.82662571831565 M518.0225036166182,335.82662571831565 L516.3269928869395,336.67293419252667 M516.3269928869395,336.67293419252667 L514.3215873974201,337.26611897651514 M514.3215873974201,337.26611897651514 L512.1229479447215,337.5716150118999 M512.1229479447215,337.5716150118999 L509.85902403299076,337.57161456553223 M509.85902403299076,337.57161456553223 L507.6615888263973,337.26611966319365 M507.6615888263973,337.26611966319365 L505.658519717902,336.67293371190726 M505.658519717902,336.67293371190726 L503.96634476130697,335.82662530642415 M503.96634476130697,335.82662530642415 L502.6834283556184,334.7764882584614 M502.6834283556184,334.7764882584614 L501.88425788855056,333.5836567709255 M501.88425788855056,333.5836567709255 L501.61513156252124,332.3175290213227 M582.3107843831945,297.43899560978946 L582.4241172751153,250.17108589619613 M582.3107843831945,297.43899560978946 L520.3875458021447,332.31752902132257 M582.4241172751153,250.17108589619613 L520.3634376097531,284.9656788029665 M582.3714328457168,239.6991093824764 L584.6135196987543,239.85110269747798 M584.6135196987543,239.85110269747798 L586.727030745357,240.29827552599602 M586.727030745357,240.29827552599602 L588.5892735563086,241.0147166632851 M588.5892735563086,241.0147166632851 L590.0920969024751,241.95888988013712 M590.0920969024751,241.95888988013712 L591.1481437558217,243.07603266654132 M591.1481437558217,243.07603266654132 L591.6959158217851,244.30131350697428 M591.6959158217851,244.30131350697428 L591.7034234814323,245.56356957621165 M591.7034234814323,245.56356957621165 L591.1700197405454,246.78944654394795 M591.1700197405454,246.78944654394795 L590.1265327228416,247.90765079122653 M590.1265327228416,247.90765079122653 L588.6334932396244,248.85310437543268 M588.6334932396244,248.85310437543268 L586.7776421572131,249.57075364461716 M586.7776421572131,249.57075364461716 L584.6669125196561,250.01878283272606 M584.6669125196561,250.01878283272606 L582.4241172751153,250.17108589619613 M511.12485292502834,200.01920129678751 L582.3714328457168,239.6991093824764 M551.2685208689454,177.7109732341324 L511.12485292502834,200.01920129678751 M672.5002233004664,244.932400217174 L551.2685208689454,177.7109732341324 M560.9545751052397,307.7504318304343 L672.5002233004664,244.932400217174 M560.9854030961162,318.3631166307425 L558.7263622323655,318.2087668127877 M558.7263622323655,318.2087668127877 L556.5979050536457,317.75471319681617 M556.5979050536457,317.75471319681617 L554.7238818926038,317.0274194611119 M554.7238818926038,317.0274194611119 L553.2132747863229,316.06925830678625 M553.2132747863229,316.06925830678625 L552.1538482564649,314.93602506602633 M552.1538482564649,314.93602506602633 L551.6070638684298,313.69367432689 M551.6070638684298,313.69367432689 L551.6045167514557,312.4144564118692 M551.6045167514557,312.4144564118692 L552.1461585363429,311.1727169389204 M552.1461585363429,311.1727169389204 L553.200331243021,310.0405672437915 M553.200331243021,310.0405672437915 L554.7056576395257,309.0837118669444 M554.7056576395257,309.0837118669444 L556.5746300624403,308.35764820032136 M556.5746300624403,308.35764820032136 L558.6987014848007,307.90446798215225 M558.6987014848007,307.90446798215225 L560.9545751052397,307.7504318304343 M592.3097623146193,335.9644098779835 L560.9854030961162,318.3631166307425 M592.3097623146193,335.9644098779835 L398.76989658019465,376.0607627534859 M398.76989658019465,376.0607627534859 L470.5350987436093,267.5386984804657 M501.54923980971347,284.9656788029665 L470.5350987436093,267.5386984804657 M470.6696388982467,314.84857280416696 L470.5350987436093,267.5386984804657 M501.61513156252124,332.3175290213227 L470.6696388982467,314.84857280416696 M582.3107843831945,297.43899560978946 L584.5486174065368,297.2863239614287 M584.5486174065368,297.2863239614287 L586.6546808283084,296.8372104502975 M586.6546808283084,296.8372104502975 L588.5064335294737,296.1178241395607 M588.5064335294737,296.1178241395607 L589.9961809728298,295.1700817797848 M589.9961809728298,295.1700817797848 L591.0373734933221,294.0491700552278 M591.0373734933221,294.0491700552278 L591.5696131275234,292.82032427888015 M591.5696131275234,292.82032427888015 L591.562138638951,291.5550106141757 M591.562138638951,291.5550106141757 L591.0155941925132,290.32676107999043 M591.0155941925132,290.32676107999043 L589.9618973352553,289.2069110336947 M589.9618973352553,289.2069110336947 L588.4624092681694,288.26044930349053 M588.4624092681694,288.26044930349053 L586.6042930949302,287.5422713768912 M586.6042930949302,287.5422713768912 L584.4954605435236,287.09401440314105 M584.4954605435236,287.09401440314105 L582.2583327767013,286.94165256909343 M511.16910832847526,247.16519310789107 L582.2583327767013,286.94165256909343 M551.2244599753427,224.8023819979287 L511.16910832847526,247.16519310789107 M551.2244599753427,224.8023819979287 L672.1876851938964,292.18762610882743 M560.888389374984,355.1569633697434 L672.1876851938964,292.18762610882743 M560.888389374984,355.1569633697434 L558.6375359502058,355.31136842399746 M558.6375359502058,355.31136842399746 L556.5181898551242,355.76563390748527 M556.5181898551242,355.76563390748527 L554.6533739297269,356.49343614767224 M554.6533739297269,356.49343614767224 L553.1513939546629,357.45258238234635 M553.1513939546629,357.45258238234635 L552.0995630047541,358.58744210118215 M552.0995630047541,358.58744210118215 L551.5591217142251,359.83215328012363 M551.5591217142251,359.83215328012363 L551.5616575010117,361.1144318909246 M551.5616575010117,361.1144318909246 L552.1072185111035,362.35975443353595 M552.1072185111035,362.35975443353595 L553.1642799148993,363.4956978731375 M553.1642799148993,363.4956978731375 L554.6715171059338,364.45615009360245 M554.6715171059338,364.45615009360245 L556.5413612979637,365.18518259950315 M556.5413612979637,365.18518259950315 L558.6650736363697,365.6403216226894 M558.6650736363697,365.6403216226894 L560.9190802141429,365.7950403907127 M592.1734124052132,383.4383387723398 L560.9190802141429,365.7950403907127 M592.1734124052132,383.4383387723398 L399.0666636718047,423.62987657470256 M399.0666636718047,423.62987657470256 L470.6696388982467,314.84857280416696 M582.2583327767013,286.94165256909343 L582.3714328457168,239.6991093824764 M511.16910832847526,247.16519310789107 L511.12485292502834,200.01920129678751 M551.2244599753427,224.8023819979287 L551.2685208689454,177.7109732341324 M672.1876851938964,292.18762610882743 L672.5002233004664,244.932400217174 M560.888389374984,355.1569633697434 L560.9545751052397,307.7504318304343 M560.9190802141429,365.7950403907127 L560.9854030961162,318.3631166307425 M592.1734124052132,383.4383387723398 L592.3097623146193,335.9644098779835 M399.0666636718047,423.62987657470256 L398.76989658019465,376.0607627534859" stroke="black"  stroke-width="4"  fill="red"/></svg>