<svg viewBox="0 0 800 800" xmlns="http://www.w3.org/2000/svg"><path d="M601.9503002261822,448.9996182281609 L601.8854263950147,495.69370210245313 M601.9150468255525,506.2219915565016 L599.7144861289985,506.06887257342987 M599.7144861289985,506.06887257342987 L597.641137421016,505.6184405244762 M597.641137421016,505.6184405244762 L595.8156384849741,504.89694506898365 M595.8156384849741,504.89694506898365 L594.3441470096927,503.94641792149207 M594.3441470096927,503.94641792149207 L593.3121614792226,502.8222107077969 M593.3121614792226,502.8222107077969 L592.7795471607237,501.58974647117657 M592.7795471607237,501.58974647117657 L592.7770894028206,500.3207021970171 M592.7770894028206,500.3207021970171 L593.3047397673571,499.08882929304787 M593.3047397673571,499.08882929304787 L594.3316657158873,497.9656696734663 M594.3316657158873,497.9656696734663 L595.798080155073,497.0164089039704 M595.798080155073,497.0164089039704 L597.6187328444955,496.2961037653621 M597.6187328444955,496.2961037653621 L599.6878865949749,495.84651739079993 M599.6878865949749,495.84651739079993 L601.8854263950147,495.69370210245313 M601.9800521414409,459.5039145952559 L601.9150468255525,506.2219915565016 M601.9503002261822,448.9996182281609 L599.7478916733655,449.1520849264442 M599.7478916733655,449.1520849264442 L597.6741551160569,449.60064579792015 M597.6741551160569,449.60064579792015 L595.849471283925,450.319308105045 M595.849471283925,450.319308105045 L594.379811331994,451.26640419063926 M594.379811331994,451.26640419063926 L593.350614230794,452.38700306381395 M593.350614230794,452.38700306381395 L592.8217995398143,453.61606797702575 M592.8217995398143,453.61606797702575 L592.8242682091944,454.8822202045087 M592.8242682091944,454.8822202045087 L593.3580688894219,456.11187641234653 M593.3580688894219,456.11187641234653 L594.3923480318101,457.233522811394 M594.3923480318101,457.233522811394 L595.8671075562997,458.18188518643296 M595.8671075562997,458.18188518643296 L597.6966591446072,458.90173773265496 M597.6966591446072,458.90173773265496 L599.7746092845875,459.3511442199565 M599.7746092845875,459.3511442199565 L601.9800521414409,459.5039145952559 M663.7738871515302,413.701872041424 L663.5730036111863,460.31498573279384 M663.7738871515302,413.701872041424 L601.9503002261822,448.9996182281609 M663.5730036111863,460.31498573279384 L601.8854263950147,495.69370210245313 M712.3942224676624,432.3153116867279 L672.6756445699004,455.0944896908652 M672.6756445699004,455.0944896908652 L670.6411669135048,455.22531322300574 M670.6411669135048,455.22531322300574 L668.7110794833472,455.6112472573051 M668.7110794833472,455.6112472573051 L666.98205877993,456.2329874245331 M666.98205877993,456.2329874245331 L665.5407311622341,457.059440070684 M665.5407311622341,457.059440070684 L664.4593689917617,458.0492513988685 M664.4593689917617,458.0492513988685 L663.792268844087,459.1528626401217 M663.792268844087,459.1528626401217 L663.5730036111863,460.31498573279384 M601.9150468255525,506.2219915565016 L633.0485498987707,524.0380494372196 M441.5786550477439,564.4340666730611 L633.0485498987707,524.0380494372196 M512.569900127847,455.0944874916977 L441.5786550477439,564.4340666730611 M512.569900127847,455.0944874916977 L543.3982736051577,472.7359358358972 M543.3982736051577,472.7359358358972 L543.6610695934,473.9890590558974 M543.6610695934,473.9890590558974 L544.4413541164118,475.1696318852968 M544.4413541164118,475.1696318852968 L545.6939219104702,476.2089723040598 M545.6939219104702,476.2089723040598 L547.3460472854433,477.04657735415105 M547.3460472854433,477.04657735415105 L549.3016882897145,477.6336591574719 M549.3016882897145,477.6336591574719 L551.4470853673253,477.93601082351825 M551.4470853673253,477.93601082351825 L553.6573881883959,477.9360104783823 M553.6573881883959,477.9360104783823 L555.8039539994402,477.6336588123561 M555.8039539994402,477.6336588123561 L557.7618634590265,477.0465771471049 M557.7618634590265,477.0465771471049 L559.4172202130669,476.2089723040598 M559.4172202130669,476.2089723040598 L560.6738028507527,475.1696327131822 M560.6738028507527,475.1696327131822 L561.4586445678448,473.9890589869227 M561.4586445678448,473.9890589869227 L561.7262815219356,472.7359363875621 M561.7262815219356,472.7359363875621 L672.2368096163517,409.6360367752086 M672.2368096163517,409.6360367752086 L712.3942224676624,432.3153116867279 M633.1828452281064,477.2794784671522 L633.0485498987707,524.0380494372196 M601.9800521414409,459.5039145952559 L633.1828452281064,477.2794784671522 M712.7020874312067,385.76665700883024 L672.8965188824518,408.49336901842776 M672.8965188824518,408.49336901842776 L670.8575532923094,408.62389186887225 M670.8575532923094,408.62389186887225 L668.9232134717154,409.0089389239332 M668.9232134717154,409.0089389239332 L667.1903886593409,409.629250299707 M667.1903886593409,409.629250299707 L665.745895662408,410.45380396868893 M665.745895662408,410.45380396868893 L664.6621655669875,411.4413413451051 M664.6621655669875,411.4413413451051 L663.993613994861,412.54241768619795 M663.993613994861,412.54241768619795 L663.7738871515302,413.701872041424 M441.28637495982497,517.5841794619809 L633.1828452281064,477.2794784671522 M512.4373755318616,408.49336682431476 L441.28637495982497,517.5841794619809 M512.4373755318616,408.49336682431476 L543.3336860173852,426.0943341132357 M561.7022180637031,426.0943346636367 L561.433986368949,427.34458680808 M561.433986368949,427.34458680808 L560.6474061109618,428.5224568733213 M560.6474061109618,428.5224568733213 L559.3880415282131,429.5594167371498 M559.3880415282131,429.5594167371498 L557.7290208176373,430.39510408973575 M557.7290208176373,430.39510408973575 L555.766778416845,430.980841953482 M555.766778416845,430.980841953482 L553.6154629762885,431.2825016083193 M553.6154629762885,431.2825016083193 L551.4002706137077,431.28250195266537 M551.4002706137077,431.28250195266537 L549.2501290803999,430.98084229780795 M549.2501290803999,430.98084229780795 L547.2901651786012,430.395104296308 M547.2901651786012,430.395104296308 L545.6343901644386,429.5594167371498 M545.6343901644386,429.5594167371498 L544.3790582008403,428.52245604733173 M544.3790582008403,428.52245604733173 L543.5970553186459,427.34458687689687 M543.5970553186459,427.34458687689687 L543.3336860173852,426.0943341132357 M672.455748773496,363.139837020747 L561.7022180637031,426.0943346636367 M672.455748773496,363.139837020747 L712.7020874312067,385.76665700883024 M672.8965188824518,408.49336901842776 L672.6756445699004,455.0944896908652 M712.7020874312067,385.76665700883024 L712.3942224676624,432.3153116867279 M672.455748773496,363.139837020747 L672.2368096163517,409.6360367752086 M561.7022180637031,426.0943346636367 L561.7262815219356,472.7359363875621 M543.3336860173852,426.0943341132357 L543.3982736051577,472.7359358358972 M512.4373755318616,408.49336682431476 L512.569900127847,455.0944874916977 M441.28637495982497,517.5841794619809 L441.5786550477439,564.4340666730611" stroke="black"  stroke-width="4"  fill="red"/>
<path d="M486.0756096361232,561.6438283792107 L485.8813346655563,514.4841233680842 M633.1828452281064,477.2794784671522 L633.317738642347,430.3126679729713 M486.0756096361232,561.6438283792107 L633.1828452281064,477.2794784671522 M485.8813346655563,514.4841233680842 L633.317738642347,430.3126679729713 M601.980052141441,459.5039145952559 L602.0453464622803,412.5781353045156 M633.1828452281064,477.2794784671522 L601.980052141441,459.5039145952559 M633.317738642347,430.3126679729713 L602.0453464622803,412.5781353045156 M602.0154621849065,402.0981494644591 L599.8081632593968,402.25026296518774 M599.8081632593968,402.25026296518774 L597.7298235517804,402.69778477821325 M597.7298235517804,402.69778477821325 L595.9010906880428,403.41478253608216 M595.9010906880428,403.41478253608216 L594.4281708266535,404.35968531674007 M594.4281708266535,404.35968531674007 L593.396692505672,405.4776895791741 M593.396692505672,405.4776895791741 L592.8667083389837,406.7039093593636 M592.8667083389837,406.7039093593636 L592.8691879926562,407.9671312770171 M592.8691879926562,407.9671312770171 L593.4041803309194,409.19394229572197 M593.4041803309194,409.19394229572197 L594.4407633022071,410.3129939837487 M594.4407633022071,410.3129939837487 L595.9188054230017,411.2591629265714 M595.9188054230017,411.2591629265714 L597.7524276959978,411.9773508093457 M597.7524276959978,411.9773508093457 L599.8349997357478,412.4257181537679 M599.8349997357478,412.4257181537679 L602.0453464622803,412.5781353045156 M601.9503002261822,448.9996182281609 L602.0154621849065,402.0981494644591 M601.980052141441,459.5039145952559 L599.7746092845875,459.3511442199565 M599.7746092845875,459.3511442199565 L597.6966591446072,458.90173773265496 M597.6966591446072,458.90173773265496 L595.8671075562997,458.18188518643296 M595.8671075562997,458.18188518643296 L594.3923480318101,457.233522811394 M594.3923480318101,457.233522811394 L593.3580688894219,456.11187641234653 M593.3580688894219,456.11187641234653 L592.8242682091944,454.8822202045087 M592.8242682091944,454.8822202045087 L592.8217995398143,453.61606797702575 M592.8217995398143,453.61606797702575 L593.350614230794,452.38700306381395 M593.350614230794,452.38700306381395 L594.379811331994,451.26640419063926 M594.379811331994,451.26640419063926 L595.849471283925,450.319308105045 M595.849471283925,450.319308105045 L597.6741551160569,449.60064579792015 M597.6741551160569,449.60064579792015 L599.7478916733655,449.1520849264442 M599.7478916733655,449.1520849264442 L601.9503002261822,448.9996182281609 M713.0113113663863,339.01252814954853 L602.0154621849065,402.0981494644591 M712.7020874312067,385.76665700883024 L713.0113113663863,339.01252814954853 M601.9503002261822,448.9996182281609 L712.7020874312067,385.76665700883024 M672.455748773496,363.139837020747 L672.6756522389926,316.43884670089585 M712.7020874312067,385.76665700883024 L672.455748773496,363.139837020747 M713.0113113663863,339.01252814954853 L672.6756522389926,316.43884670089585 M632.6492094456228,385.766661377748 L632.7817339820888,339.0125325082272 M672.455748773496,363.139837020747 L632.6492094456228,385.766661377748 M672.6756522389926,316.43884670089585 L632.7817339820888,339.0125325082272 M623.5264096252547,390.95224125142994 L623.6388542838613,344.1859650187402 M632.6492094456228,385.766661377748 L632.4265411999078,386.9201084258108 M632.4265411999078,386.9201084258108 L631.7561475165803,388.0159591603237 M631.7561475165803,388.0159591603237 L630.6715362093198,388.99920278359184 M630.6715362093198,388.99920278359184 L629.2270190634124,389.8204630222932 M629.2270190634124,389.8204630222932 L627.4950271109099,390.4384739791213 M627.4950271109099,390.4384739791213 L625.5624811405804,390.82216506146364 M625.5624811405804,390.82216506146364 L623.5264096252547,390.95224125142994 M632.7817339820888,339.0125325082272 L632.5585890682263,340.1632765802203 M632.5585890682263,340.1632765802203 L631.8867293955851,341.25655983645913 M631.8867293955851,341.25655983645913 L630.7997357851574,342.2375002468558 M630.7997357851574,342.2375002468558 L629.3520391671967,343.056837029903 M629.3520391671967,343.056837029903 L627.6162299966072,343.67340074701684 M627.6162299966072,343.67340074701684 L625.6794207748684,344.05619339517386 M625.6794207748684,344.05619339517386 L623.6388542838613,344.1859650187402 M561.7022180637031,426.0943346636367 L561.6780479680169,379.24604021956924 M623.5264096252547,390.95224125142994 L561.7022180637031,426.0943346636367 M623.6388542838613,344.1859650187402 L561.6780479680169,379.24604021956924 M543.2688122090776,379.2460396704487 L543.5327573296075,380.4933841977861 M543.5327573296075,380.4933841977861 L544.3164861553028,381.66851411642864 M544.3164861553028,381.66851411642864 L545.574594514243,382.7030637423461 M545.574594514243,382.7030637423461 L547.2340353263742,383.5368085576367 M547.2340353263742,383.5368085576367 L549.1983412776754,384.12118505736044 M549.1983412776754,384.12118505736044 L551.3532482956766,384.422143585402 M551.3532482956766,384.422143585402 L553.5733518787201,384.42214324185625 M553.5733518787201,384.42214324185625 L555.7294380122268,384.1211847138347 M555.7294380122268,384.1211847138347 L557.6960325730618,383.53680835154466 M557.6960325730618,383.53680835154466 L559.3587334942815,382.7030637423461 M559.3587334942815,382.7030637423461 L560.6208923662151,381.6685149404975 M560.6208923662151,381.6685149404975 L561.409218883753,380.4933841291295 M561.409218883753,380.4933841291295 L561.6780479680169,379.24604021956924 M543.3336860173852,426.0943341132357 L543.2688122090776,379.2460396704487 M561.7022180637031,426.0943346636367 L561.433986368949,427.34458680808 M561.433986368949,427.34458680808 L560.6474061109618,428.5224568733213 M560.6474061109618,428.5224568733213 L559.3880415282131,429.5594167371498 M559.3880415282131,429.5594167371498 L557.7290208176373,430.39510408973575 M557.7290208176373,430.39510408973575 L555.766778416845,430.980841953482 M555.766778416845,430.980841953482 L553.6154629762885,431.2825016083193 M553.6154629762885,431.2825016083193 L551.4002706137077,431.28250195266537 M551.4002706137077,431.28250195266537 L549.2501290803999,430.98084229780795 M549.2501290803999,430.98084229780795 L547.2901651786012,430.395104296308 M547.2901651786012,430.395104296308 L545.6343901644386,429.5594167371498 M545.6343901644386,429.5594167371498 L544.3790582008403,428.52245604733173 M544.3790582008403,428.52245604733173 L543.5970553186459,427.34458687689687 M543.5970553186459,427.34458687689687 L543.3336860173852,426.0943341132357 M512.4373755318616,408.49336682431476 L512.3042646541356,361.6860852859197 M543.3336860173852,426.0943341132357 L512.4373755318616,408.49336682431476 M543.2688122090776,379.2460396704487 L512.3042646541356,361.6860852859197 M365.33802930545994,491.7396425491489 L364.8758029292668,444.7395534648572 M512.4373755318616,408.49336682431476 L365.33802930545994,491.7396425491489 M512.3042646541356,361.6860852859197 L364.8758029292668,444.7395534648572 M485.8813346655563,514.4841233680842 L490.4278655461432,522.8194422313609 M490.4278655461432,522.8194422313609 L493.87716657091283,531.3435577870267 M493.87716657091283,531.3435577870267 L496.2072688918984,540.0092722619245 M496.2072688918984,540.0092722619245 L497.4022947203779,548.768385717195 M497.4022947203779,548.768385717195 L497.4527208706093,557.5718788068035 M497.4527208706093,557.5718788068035 L496.3553528155003,566.3702976824684 M496.3553528155003,566.3702976824684 L494.1134911924085,575.11392848042 M494.1134911924085,575.11392848042 L490.7369708883649,583.7531427793375 M490.7369708883649,583.7531427793375 L486.24217530373437,592.2386275714614 M486.24217530373437,592.2386275714614 L480.6519428503455,600.5217456999035 M480.6519428503455,600.5217456999035 L473.9955715880954,608.5547798967342 M473.9955715880954,608.5547798967342 L466.30865754603326,616.2912563021882 M466.30865754603326,616.2912563021882 L457.6329723655141,623.6861910901638 M457.6329723655141,623.6861910901638 L448.0162345723734,630.6964338368501 M448.0162345723734,630.6964338368501 L437.5118548821858,637.2808768540842 M437.5118548821858,637.2808768540842 L426.1786993731296,643.4008148452726 M426.1786993731296,643.4008148452726 L414.08081084422383,649.020084991375 M414.08081084422383,649.020084991375 L401.2867795712558,654.1054385358383 M401.2867795712558,654.1054385358383 L387.8697574375972,658.6266438615593 M387.8697574375972,658.6266438615593 L373.90667661817815,662.5567635472871 M373.90667661817815,662.5567635472871 L359.47797448358335,665.8723594268465 M359.47797448358335,665.8723594268465 L344.6669986845976,668.5535870826308 M344.6669986845976,668.5535870826308 L329.55955217528094,670.5843736110039 M329.55955217528094,670.5843736110039 L314.24329480062056,671.9525480759861 M314.24329480062056,671.9525480759861 L298.80726740455447,672.6498912854312 M298.80726740455447,672.6498912854312 L283.34127470371993,672.6722111687438 M283.34127470371993,672.6722111687438 L267.9353063033438,672.0193597891356 M267.9353063033438,672.0193597891356 L252.67896354769005,670.6952847077296 M252.67896354769005,670.6952847077296 L237.66089956095652,668.7079288167016 M237.66089956095652,668.7079288167016 L222.96833219752898,666.0692019039457 M222.96833219752898,666.0692019039457 L208.68629486460782,662.7949382599896 M208.68629486460782,662.7949382599896 L194.89730559189732,658.9047132658285 M194.89730559189732,658.9047132658285 L181.68072795226462,654.4217691646044 M181.68072795226462,654.4217691646044 L169.11239843970597,649.3727852580828 M169.11239843970597,649.3727852580828 L157.26399701730853,643.7877878089664 M157.26399701730853,643.7877878089664 L146.20282440140167,637.6998371603264 M146.20282440140167,637.6998371603264 L135.99121657207104,631.1449062801482 M135.99121657207104,631.1449062801482 L126.68637093296672,624.1615415039187 M126.68637093296672,624.1615415039187 L118.33986000227247,616.7907084934361 M118.33986000227247,616.7907084934361 L110.99754085885593,609.0754140553122 M110.99754085885593,609.0754140553122 L104.69913615070419,601.060543728756 M104.69913615070419,601.060543728756 L99.47821306771789,592.7924801604246 M99.47821306771789,592.7924801604246 L95.3619198754626,584.3188779349024 M95.3619198754626,584.3188779349024 L92.37099522544753,575.6882996611961 M92.37099522544753,575.6882996611961 L90.51958053484799,566.9500378055942 M90.51958053484799,566.9500378055942 L89.8152780450842,558.1537102972926 M89.8152780450842,558.1537102972926 L90.25921713248579,549.3490165344522 M90.25921713248579,549.3490165344522 L91.84599011485966,540.585459593412 M91.84599011485966,540.585459593412 L94.56383293851388,531.9120713489882 M94.56383293851388,531.9120713489882 L98.39473292354899,523.3771404500726 M98.39473292354899,523.3771404500726 L103.31462037129637,515.0279249114686 M103.31462037129637,515.0279249114686 L109.29349610555528,506.91044823510765 M109.29349610555528,506.91044823510765 L116.29568118735449,499.06922934460454 M116.29568118735449,499.06922934460454 L124.28012525936606,491.54709463421636 M124.28012525936606,491.54709463421636 L133.20055986709917,484.38490923465974 M133.20055986709917,484.38490923465974 L143.0058143298656,477.6214872101232 M143.0058143298656,477.6214872101232 L153.64024994390468,471.2932131562428 M153.64024994390468,471.2932131562428 L165.04386623991977,465.43410488130723 M165.04386623991977,465.43410488130723 L177.152864950395,460.0755094854791 M177.152864950395,460.0755094854791 L189.8998025537001,455.24598755998 M189.8998025537001,455.24598755998 L203.21410621199442,450.9712139146757 M203.21410621199442,450.9712139146757 L217.02232899724706,447.2738582884815 M217.02232899724706,447.2738582884815 L231.24862882442898,444.17347202167434 M231.24862882442898,444.17347202167434 L245.81507978045136,441.686424320814 M245.81507978045136,441.686424320814 L260.64211670220635,439.8258072257846 M260.64211670220635,439.8258072257846 L275.64884506330134,438.60142429237055 M275.64884506330134,438.60142429237055 L290.7535580210574,438.01971570720826 M290.7535580210574,438.01971570720826 L305.87403698363306,438.08373506418457 M305.87403698363306,438.08373506418457 L320.9280602985021,438.7931330402099 M320.9280602985021,438.7931330402099 L335.833628754605,440.14420562391444 M335.833628754605,440.14420562391444 L350.50956945068896,442.129829165042 M350.50956945068896,442.129829165042 L364.8758029292668,444.7395534648572 M365.33802930545994,491.7396425491489 L351.0036377251163,489.12390502338656 M351.0036377251163,489.12390502338656 L336.3602433128269,487.13370431998953 M336.3602433128269,487.13370431998953 L321.4877535039427,485.77951633892326 M321.4877535039427,485.77951633892326 L306.4671669900954,485.0684822687765 M306.4671669900954,485.0684822687765 L291.38030701416056,485.0043152524298 M291.38030701416056,485.0043152524298 L276.3092186823694,485.5873654719876 M276.3092186823694,485.5873654719876 L261.33594379260177,486.81457180744906 M261.33594379260177,486.81457180744906 L246.54201311060524,488.67947821127586 M246.54201311060524,488.67947821127586 L232.0081463097004,491.1722570121228 M232.0081463097004,491.1722570121228 L217.81373592381976,494.27978401237715 M217.81373592381976,494.27978401237715 L204.03653800675167,497.98564988410783 M204.03653800675167,497.98564988410783 L190.75222842004226,502.2702554849511 M190.75222842004226,502.2702554849511 L178.03409208823027,507.11087581424954 M178.03409208823027,507.11087581424954 L165.95254504666568,512.4817736846301 M165.95254504666568,512.4817736846301 L154.5748797207144,518.3543193760554 M154.5748797207144,518.3543193760554 L143.96475009597748,524.6970902319767 M143.96475009597748,524.6970902319767 L134.18201949796583,531.475986825372 M134.18201949796583,531.475986825372 L125.28219791002698,538.6545376759663 M125.28219791002698,538.6545376759663 L117.31633597119753,546.1938365257361 M117.31633597119753,546.1938365257361 L110.33059182777811,554.0529217031803 M110.33059182777811,554.0529217031803 L104.36591605123851,562.188866223263 M104.36591605123851,562.188866223263 L99.457898782965,570.557047219395 M99.457898782965,570.557047219395 L95.63646221663043,579.111334398508 M95.63646221663043,579.111334398508 L92.9256116072678,587.8043607857445 M92.9256116072678,587.8043607857445 L91.3433081898811,596.5877271192617 M91.3433081898811,596.5877271192617 L90.90127819753525,605.4122899493383 M90.90127819753525,605.4122899493383 L91.60490556172846,614.2284343028948 M91.60490556172846,614.2284343028948 L93.45305184160691,622.9863491932715 M93.45305184160691,622.9863491932715 L96.438120484703,631.6363060308098 M96.438120484703,631.6363060308098 L100.54599087105765,640.1289031440541 M100.54599087105765,640.1289031440541 L105.75596060110092,648.4154710443428 M105.75596060110092,648.4154710443428 L112.04093287386547,656.4482509395995 M112.04093287386547,656.4482509395995 L119.36740738273221,664.1807593960234 M119.36740738273221,664.1807593960234 L127.69574333868275,671.5680139318639 M127.69574333868275,671.5680139318639 L136.9801805955883,678.566915404054 M136.9801805955883,678.566915404054 L147.16925779293246,685.1364106836257 M147.16925779293246,685.1364106836257 L158.20590279704345,691.2378715734714 M158.20590279704345,691.2378715734714 L170.02791795063152,696.8352490825281 M170.02791795063152,696.8352490825281 L182.56815354807583,701.8954133253948 M182.56815354807583,701.8954133253948 L195.75509197629847,706.3882751375802 M195.75509197629847,706.3882751375802 L209.5130698913136,710.2870995433912 M209.5130698913136,710.2870995433912 L223.76290615997698,713.5685959538928 M223.76290615997698,713.5685959538928 L238.42227353933848,716.2131483885283 M238.42227353933848,716.2131483885283 L253.40633617156055,718.2048897887573 M253.40633617156055,718.2048897887573 L268.6280796174251,719.5318857697682 M268.6280796174251,719.5318857697682 L283.99905815885194,720.1861770566508 M283.99905815885194,720.1861770566508 L299.42988055681326,720.1638079483769 M299.42988055681326,720.1638079483769 L314.83076854939907,719.4649266885738 M314.83076854939907,719.4649266885738 L330.11212849789115,718.0937339887194 M330.11212849789115,718.0937339887194 L345.1851288587129,716.0584659965206 M345.1851288587129,716.0584659965206 L359.96231571483946,713.3713187871285 M359.96231571483946,713.3713187871285 L374.3580874071207,710.0483985285529 M374.3580874071207,710.0483985285529 L388.28929141975357,706.1095908063423 M388.28929141975357,706.1095908063423 L401.67567817503914,701.5783825448418 M401.67567817503914,701.5783825448418 L414.44049447601105,696.4817673954177 M414.44049447601105,696.4817673954177 L426.5107578774153,690.8500403232799 M426.5107578774153,690.8500403232799 L437.81803615517157,684.7165200431707 M437.81803615517157,684.7165200431707 L448.29843316921523,678.1174458235748 M448.29843316921523,678.1174458235748 L457.89321666410683,671.0916051877815 M457.89321666410683,671.0916051877815 L466.54909630023167,663.6801936255944 M466.54909630023167,663.6801936255944 L474.21845998834635,655.9264542420856 M474.21845998834635,655.9264542420856 L480.8596280830366,647.8754680558931 M480.8596280830366,647.8754680558931 L486.43708169080384,639.573809953609 M486.43708169080384,639.573809953609 L490.9215848725555,631.0693015912625 M490.9215848725555,631.0693015912625 L494.2903460973365,622.4106872165754 M494.2903460973365,622.4106872165754 L496.5270137728689,613.6473891355138 M496.5270137728689,613.6473891355138 L497.62176970285503,604.8291465021192 M497.62176970285503,604.8291465021192 L497.5713150315031,596.0057848508685 M497.5713150315031,596.0057848508685 L496.37883142353286,587.2268698651475 M496.37883142353286,587.2268698651475 L494.05381511133817,578.541532485975 M494.05381511133817,578.541532485975 L490.6121029512947,569.9980831106677 M490.6121029512947,569.9980831106677 L486.0756096361232,561.6438283792107 M315.2829199235438,589.3656528979026 L318.84692936057434,591.9187043023447 M318.84692936057434,591.9187043023447 L321.47204359835234,594.8329823233289 M321.47204359835234,594.8329823233289 L323.05681744488186,597.9969781256007 M323.05681744488186,597.9969781256007 L323.53945175081446,601.2894530216184 M323.53945175081446,601.2894530216184 L322.9003725302937,604.5839997118846 M322.9003725302937,604.5839997118846 L321.1631519732276,607.7538759023205 M321.1631519732276,607.7538759023205 L318.393671284246,610.6769447569225 M318.393671284246,610.6769447569225 L314.6978057856769,613.2403657059187 M314.6978057856769,613.2403657059187 L310.2173514416169,615.3450611628547 M310.2173514416169,615.3450611628547 L305.12475845564677,616.9095277076211 M305.12475845564677,616.9095277076211 L299.616306766727,617.8731516287371 M299.616306766727,617.8731516287371 L293.9045526761281,618.1985678465967 M293.9045526761281,618.1985678465967 L288.21004083219066,617.873143634538 M288.21004083219066,617.873143634538 L282.7525950245153,616.9095228548887 M282.7525950245153,616.9095228548887 L277.7428192678152,615.3450603067447 M277.7428192678152,615.3450603067447 L273.3738289309429,613.2403657059187 M273.3738289309429,613.2403657059187 L269.8136462851583,610.676947893209 M269.8136462851583,610.676947893209 L267.1989261603886,607.7538739076106 M267.1989261603886,607.7538739076106 L265.6295312221625,604.5839917378538 M265.6295312221625,604.5839917378538 L265.1648738216937,601.2894621290869 M265.1648738216937,601.2894621290869 L265.82182072783144,597.9969883650853 M265.82182072783144,597.9969883650853 L267.5740930464697,594.8329894298008 M267.5740930464697,594.8329894298008 L270.3535021374755,591.9187165186956 M270.3535021374755,591.9187165186956 L274.0526931325634,589.3656528979026 M274.0526931325634,589.3656528979026 L278.5292727190335,587.2713512122386 M278.5292727190335,587.2713512122386 L283.61147164389286,585.7156806378641 M283.61147164389286,585.7156806378641 L289.1045603985153,584.757933992616 M289.1045603985153,584.757933992616 L294.7983374967896,584.4345725245042 M294.7983374967896,584.4345725245042 L300.47498165640593,584.7579237789156 M300.47498165640593,584.7579237789156 L305.9173596934064,585.7156763813788 M305.9173596934064,585.7156763813788 L310.91720703157404,587.2713429805943 M310.91720703157404,587.2713429805943 L315.2829199235438,589.3656528979026 M315.2829199235438,589.3656528979026 L314.70367023236724,542.1432280641905 M314.70367023236724,542.1432280641905 L310.3282477571015,540.0536449816852 M310.3282477571015,540.0536449816852 L305.31723701406605,538.5014907197104 M305.31723701406605,538.5014907197104 L299.862668298247,537.5459010171704 M299.862668298247,537.5459010171704 L294.173270770743,537.2232800779433 M294.173270770743,537.2232800779433 L288.4666631505018,537.5459112078031 M288.4666631505018,537.5459112078031 L282.96115525989103,538.5014949665841 M282.96115525989103,538.5014949665841 L277.8674218432016,540.0536531947472 M277.8674218432016,540.0536531947472 L273.38063301011783,542.1432280641905 M273.38063301011783,542.1432280641905 L269.67294921871667,544.6905319860122 M269.67294921871667,544.6905319860122 L266.8870910626526,547.5982337199584 M266.8870910626526,547.5982337199584 L265.1306637003563,550.755102503181 M265.1306637003563,550.755102503181 L264.4720192657535,554.0401611409607 M264.4720192657535,554.0401611409607 L264.9375065031267,557.327275635416 M264.9375065031267,557.327275635416 L266.510231306285,560.4900276224882 M266.510231306285,560.4900276224882 L269.1306573908363,563.4065303937302 M269.1306573908363,563.4065303937302 L272.6987055923567,565.9641885252973 M272.6987055923567,565.9641885252973 L277.0774197149476,568.0641562406316 M277.0774197149476,568.0641562406316 L282.0984031490525,569.625106425983 M282.0984031490525,569.625106425983 L287.5681072376238,570.5865643091589 M287.5681072376238,570.5865643091589 L293.27545298518714,570.9112581795433 M293.27545298518714,570.9112581795433 L299.00011887406947,570.5865722854163 M299.00011887406947,570.5865722854163 L304.5210593728633,569.6251112678223 M304.5210593728633,569.6251112678223 L309.6252342784903,568.0641570948194 M309.6252342784903,568.0641570948194 L314.1159159036241,565.9641885252973 M314.1159159036241,565.9641885252973 L317.8202598857599,563.4065272644923 M317.8202598857599,563.4065272644923 L320.59614536725394,560.4900296127126 M320.59614536725394,560.4900296127126 L322.3374534026485,557.3272835915051 M322.3374534026485,557.3272835915051 L322.97814961608077,554.0401520539973 M322.97814961608077,554.0401520539973 L322.4946041975164,550.7550922867645 M322.4946041975164,550.7550922867645 L320.90643077573907,547.5982266295059 M320.90643077573907,547.5982266295059 L318.2755631500417,544.6905197972146 M318.2755631500417,544.6905197972146 L314.70367023236724,542.1432280641905" stroke="black"  stroke-width="4"  fill="red"/>
<path d="M602.0809142455264,354.987874746173 L602.0154621849065,402.0981494644591 M602.0453464622803,412.5781353045156 L599.8349997357478,412.4257181537679 M599.8349997357478,412.4257181537679 L597.7524276959978,411.9773508093457 M597.7524276959978,411.9773508093457 L595.9188054230017,411.2591629265714 M595.9188054230017,411.2591629265714 L594.4407633022071,410.3129939837487 M594.4407633022071,410.3129939837487 L593.4041803309194,409.19394229572197 M593.4041803309194,409.19394229572197 L592.8691879926562,407.9671312770171 M592.8691879926562,407.9671312770171 L592.8667083389837,406.7039093593636 M592.8667083389837,406.7039093593636 L593.396692505672,405.4776895791741 M593.396692505672,405.4776895791741 L594.4281708266535,404.35968531674007 M594.4281708266535,404.35968531674007 L595.9010906880428,403.41478253608216 M595.9010906880428,403.41478253608216 L597.7298235517804,402.69778477821325 M597.7298235517804,402.69778477821325 L599.8081632593968,402.25026296518774 M599.8081632593968,402.25026296518774 L602.0154621849065,402.0981494644591 M602.110931770336,365.44322906792263 L602.0453464622803,412.5781353045156 M602.0809142455264,354.987874746173 L599.8687031792866,355.13963039034286 M599.8687031792866,355.13963039034286 L597.7857398385521,355.58609943799524 M597.7857398385521,355.58609943799524 L595.9529399318284,356.30141068599903 M595.9529399318284,356.30141068599903 L594.4767456657335,357.2440912206308 M594.4767456657335,357.2440912206308 L593.4429759890056,358.3594666292569 M593.4429759890056,358.3594666292569 L592.9118171622017,359.5828037187099 M592.9118171622017,359.5828037187099 L592.9143078736397,360.84305663533314 M592.9143078736397,360.84305663533314 L593.4504972027157,362.0669848887852 M593.4504972027157,362.0669848887852 L594.4893942900915,363.1834075901167 M594.4893942900915,363.1834075901167 L595.9707336541815,364.1273541202175 M595.9707336541815,364.1273541202175 L597.8084447680694,364.8438553418856 M597.8084447680694,364.8438553418856 L599.8956593158163,365.2911698101841 M599.8956593158163,365.2911698101841 L602.110931770336,365.44322906792263 M664.1783277481381,319.855280733731 L663.97565983954,366.88244009638834 M664.1783277481381,319.855280733731 L602.0809142455264,354.987874746173 M663.97565983954,366.88244009638834 L602.0154621849065,402.0981494644591 M673.1183703311755,361.6860874749118 L671.0748969650431,361.81630569975164 M671.0748969650431,361.81630569975164 L669.1362859765247,362.2004541408936 M669.1362859765247,362.2004541408936 L667.3996402807061,362.8193179816956 M667.3996402807061,362.8193179816956 L665.9519679722152,363.64194775848733 M665.9519679722152,363.64194775848733 L664.8658595603354,364.62718134325274 M664.8658595603354,364.62718134325274 L664.1958502361588,365.7256895134492 M664.1958502361588,365.7256895134492 L663.97565983954,366.88244009638834 M713.0113113663863,339.01252814954853 L673.1183703311755,361.6860874749118 M672.6756522389926,316.43884670089585 L713.0113113663863,339.01252814954853 M561.6780479680169,379.24604021956924 L672.6756522389926,316.43884670089585 M543.2688122090776,379.2460396704487 L543.5327573296075,380.4933841977861 M543.5327573296075,380.4933841977861 L544.3164861553028,381.66851411642864 M544.3164861553028,381.66851411642864 L545.574594514243,382.7030637423461 M545.574594514243,382.7030637423461 L547.2340353263742,383.5368085576367 M547.2340353263742,383.5368085576367 L549.1983412776754,384.12118505736044 M549.1983412776754,384.12118505736044 L551.3532482956766,384.422143585402 M551.3532482956766,384.422143585402 L553.5733518787201,384.42214324185625 M553.5733518787201,384.42214324185625 L555.7294380122268,384.1211847138347 M555.7294380122268,384.1211847138347 L557.6960325730618,383.53680835154466 M557.6960325730618,383.53680835154466 L559.3587334942815,382.7030637423461 M559.3587334942815,382.7030637423461 L560.6208923662151,381.6685149404975 M560.6208923662151,381.6685149404975 L561.409218883753,380.4933841291295 M561.409218883753,380.4933841291295 L561.6780479680169,379.24604021956924 M512.3042646541355,361.6860852859198 L543.2688122090776,379.2460396704487 M512.3042646541355,361.6860852859198 L440.9927881388644,470.52483461711586 M440.9927881388644,470.52483461711586 L633.317738642347,430.3126679729713 M602.0453464622803,412.5781353045156 L633.317738642347,430.3126679729713 M633.453234250422,383.1361873190466 L633.317738642347,430.3126679729713 M602.110931770336,365.44322906792263 L633.453234250422,383.1361873190466 M713.3219035311103,292.0515253288426 L673.3412055867511,314.67123764832854 M673.3412055867511,314.67123764832854 L671.2932044670063,314.8011472597643 M671.2932044670063,314.8011472597643 L669.3503034051125,315.1843853228245 M669.3503034051125,315.1843853228245 L667.6098199372021,315.8017826765289 M667.6098199372021,315.8017826765289 L666.158954290182,316.62246336879116 M666.158954290182,316.62246336879116 L665.0704570999367,317.60536298985437 M665.0704570999367,317.60536298985437 L664.3989836535213,318.7012693480143 M664.3989836535213,318.7012693480143 L664.1783277481381,319.855280733731 M440.6978855741925,423.2545878086304 L633.453234250422,383.1361873190466 M512.170563492261,314.67123546452444 L440.6978855741925,423.2545878086304 M512.170563492261,314.67123546452444 L543.2036502230978,332.18963917085927 M561.6537705057049,332.18963971868266 L561.3843413648858,333.4340371920789 M561.3843413648858,333.4340371920789 L560.5942608162693,334.60639275973904 M560.5942608162693,334.60639275973904 L559.3292952265188,335.6384988151437 M559.3292952265188,335.6384988151437 L557.6628977292899,336.47027514630554 M557.6628977292899,336.47027514630554 L555.691931658047,337.0532721097121 M555.691931658047,337.0532721097121 L553.5310536240229,337.3535202935841 M553.5310536240229,337.3535202935841 L551.3060169932555,337.35352063631905 M551.3060169932555,337.35352063631905 L549.146323317746,337.0532724524269 M549.146323317746,337.0532724524269 L547.1776560340413,336.470275351911 M547.1776560340413,336.470275351911 L545.5145331547665,335.6384988151437 M545.5145331547665,335.6384988151437 L544.2536360912377,334.6063919376162 M544.2536360912377,334.6063919376162 L543.4681736860618,333.4340372605734 M543.4681736860618,333.4340372605734 L543.2036502230978,332.18963917085927 M672.896526568378,269.5316736136869 L561.6537705057049,332.18963971868266 M672.896526568378,269.5316736136869 L713.3219035311103,292.0515253288426 M673.3412055867511,314.67123764832854 L673.1183703311755,361.6860874749118 M713.3219035311103,292.0515253288426 L713.0113113663863,339.01252814954853 M672.896526568378,269.5316736136869 L672.6756522389926,316.43884670089585 M561.6537705057049,332.18963971868266 L561.6780479680169,379.24604021956924 M543.2036502230978,332.18963917085927 L543.2688122090776,379.2460396704487 M512.170563492261,314.67123546452444 L512.3042646541355,361.6860852859198 M440.6978855741925,423.2545878086304 L440.9927881388644,470.52483461711586" stroke="black"  stroke-width="4"  fill="red"/>
<path d="M561.7502390330645,519.1721834796003 L561.7262815219356,472.7359363875621 M543.3982736051577,472.7359358358972 L543.6610695934,473.9890590558974 M543.6610695934,473.9890590558974 L544.4413541164118,475.1696318852968 M544.4413541164118,475.1696318852968 L545.6939219104702,476.2089723040598 M545.6939219104702,476.2089723040598 L547.3460472854433,477.04657735415105 M547.3460472854433,477.04657735415105 L549.3016882897145,477.6336591574719 M549.3016882897145,477.6336591574719 L551.4470853673253,477.93601082351825 M551.4470853673253,477.93601082351825 L553.6573881883959,477.9360104783823 M553.6573881883959,477.9360104783823 L555.8039539994402,477.6336588123561 M555.8039539994402,477.6336588123561 L557.7618634590265,477.0465771471049 M557.7618634590265,477.0465771471049 L559.4172202130669,476.2089723040598 M559.4172202130669,476.2089723040598 L560.6738028507527,475.1696327131822 M560.6738028507527,475.1696327131822 L561.4586445678448,473.9890589869227 M561.4586445678448,473.9890589869227 L561.7262815219356,472.7359363875621 M543.4625768253309,519.1721829266882 L543.3982736051577,472.7359358358972 M561.7502390330645,519.1721834796003 L561.4831941880271,520.4281391661652 M561.4831941880271,520.4281391661652 L560.7000833432392,521.6113813490297 M560.7000833432392,521.6113813490297 L559.4462703865148,522.653069674043 M559.4462703865148,522.653069674043 L557.7945614402416,523.4925670302812 M557.7945614402416,523.4925670302812 L555.84096582756,524.0809749903153 M555.84096582756,524.0809749903153 L553.6991287190539,524.3840096514238 M553.6991287190539,524.3840096514238 L551.4936939009592,524.3840099973394 M551.4936939009592,524.3840099973394 L549.3530203862128,524.0809753362108 M549.3530203862128,524.0809753362108 L547.4016832514469,523.492567237795 M547.4016832514469,523.492567237795 L545.7531914613951,522.653069674043 M545.7531914613951,522.653069674043 L544.5033756900641,521.6113805192733 M544.5033756900641,521.6113805192733 L543.7248019908109,520.4281392352959 M543.7248019908109,520.4281392352959 L543.4625768253309,519.1721829266882 M623.3030003727431,483.8692276637048 L623.4144593847132,437.51288662451464 M623.3030003727431,483.8692276637048 L561.7502390330645,519.1721834796003 M623.4144593847132,437.51288662451464 L561.7262815219356,472.7359363875621 M632.5172673255405,432.3153160657529 L632.2950737179946,433.47143123966725 M632.2950737179946,433.47143123966725 L631.6261396415081,434.56981634231727 M631.6261396415081,434.56981634231727 L630.5439002191201,435.5553334705321 M630.5439002191201,435.5553334705321 L629.1025486115354,436.37849235108354 M629.1025486115354,436.37849235108354 L627.3743571265936,436.99793187480947 M627.3743571265936,436.99793187480947 L625.446055682243,437.3825097983299 M625.446055682243,437.3825097983299 L623.4144593847132,437.51288662451464 M672.2368096163517,409.6360367752086 L632.5172673255405,432.3153160657529 M712.3942224676624,432.3153116867279 L672.2368096163517,409.6360367752086 M601.8854263950147,495.69370210245313 L712.3942224676624,432.3153116867279 M601.9150468255525,506.2219915565016 L599.7144861289985,506.06887257342987 M599.7144861289985,506.06887257342987 L597.641137421016,505.6184405244762 M597.641137421016,505.6184405244762 L595.8156384849741,504.89694506898365 M595.8156384849741,504.89694506898365 L594.3441470096927,503.94641792149207 M594.3441470096927,503.94641792149207 L593.3121614792226,502.8222107077969 M593.3121614792226,502.8222107077969 L592.7795471607237,501.58974647117657 M592.7795471607237,501.58974647117657 L592.7770894028206,500.3207021970171 M592.7770894028206,500.3207021970171 L593.3047397673571,499.08882929304787 M593.3047397673571,499.08882929304787 L594.3316657158873,497.9656696734663 M594.3316657158873,497.9656696734663 L595.798080155073,497.0164089039704 M595.798080155073,497.0164089039704 L597.6187328444955,496.2961037653621 M597.6187328444955,496.2961037653621 L599.6878865949749,495.84651739079993 M599.6878865949749,495.84651739079993 L601.8854263950147,495.69370210245313 M633.0485498987707,524.0380494372196 L601.9150468255525,506.2219915565016 M633.0485498987707,524.0380494372196 L441.5786550477439,564.4340666730611 M441.5786550477439,564.4340666730611 L512.569900127847,455.0944874916977 M543.3982736051577,472.7359358358972 L512.569900127847,455.0944874916977 M512.7018422308704,501.49077957915426 L512.569900127847,455.0944874916977 M543.4625768253309,519.1721829266882 L512.7018422308704,501.49077957915426 M632.3859038666305,478.6598213958814 L632.1641828799295,479.81857022393547 M632.1641828799295,479.81857022393547 L631.4967020685599,480.91945694423987 M631.4967020685599,480.91945694423987 L630.4168241795785,481.90721819221426 M630.4168241795785,481.90721819221426 L628.9786242661622,482.73225117040886 M628.9786242661622,482.73225117040886 L627.2542166060869,483.35310079111025 M627.2542166060869,483.35310079111025 L625.3301410829475,483.738554088775 M625.3301410829475,483.738554088775 L623.3030003727431,483.8692276637048 M672.0188285642043,455.9287633734491 L632.3859038666305,478.6598213958814 M712.0877077135926,478.65981700687996 L672.0188285642043,455.9287633734491 M601.8208388218413,542.1817467379806 L712.0877077135926,478.65981700687996 M601.8208388218413,542.1817467379806 L599.6281462949199,542.3349060593074 M599.6281462949199,542.3349060593074 L597.563555139724,542.7855045298954 M597.563555139724,542.7855045298954 L595.7469158200896,543.507431019836 M595.7469158200896,543.507431019836 L594.2837325902335,544.4588281653822 M594.2837325902335,544.4588281653822 L593.2590677924499,545.584515037638 M593.2590677924499,545.584515037638 L592.7325766383558,546.8191591966292 M592.7325766383558,546.8191591966292 L592.7350235569614,548.09105767317 M592.7350235569614,548.09105767317 L593.2664567754899,549.3262931850676 M593.2664567754899,549.3262931850676 L594.2961588445257,550.4530276881974 M594.2961588445257,550.4530276881974 L595.7643967230861,551.4056912622356 M595.7643967230861,551.4056912622356 L597.5858609220563,552.1288081110785 M597.5858609220563,552.1288081110785 L599.6546285327954,552.5802522892114 M599.6546285327954,552.5802522892114 L601.85032863739,552.7337153138453 M632.9148487625981,570.5897358989422 L601.85032863739,552.7337153138453 M632.9148487625981,570.5897358989422 L441.86963693969614,611.0758646672138 M441.86963693969614,611.0758646672138 L512.7018422308704,501.49077957915426 M632.3859038666305,478.6598213958814 L632.5172673255405,432.3153160657529 M672.0188285642043,455.9287633734491 L672.2368096163517,409.6360367752086 M712.0877077135926,478.65981700687996 L712.3942224676624,432.3153116867279 M601.8208388218413,542.1817467379806 L601.8854263950147,495.69370210245313 M601.85032863739,552.7337153138453 L601.9150468255525,506.2219915565016 M632.9148487625981,570.5897358989422 L633.0485498987707,524.0380494372196 M441.86963693969614,611.0758646672138 L441.5786550477439,564.4340666730611" stroke="black"  stroke-width="4"  fill="red"/>
<path d="M602.2126963798228,260.1353599304221 L602.1466583242809,307.66741482647774 M602.1768099897089,318.0978130713409 L599.956589804332,317.946116426983 M599.956589804332,317.946116426983 L597.8647120040214,317.4998687207624 M597.8647120040214,317.4998687207624 L596.0228937728818,316.78507640245107 M596.0228937728818,316.78507640245107 L594.5382424215335,315.8433815877796 M594.5382424215335,315.8433815877796 L593.4970208627226,314.72962252984587 M593.4970208627226,314.72962252984587 L592.9596291746443,313.5086150354262 M592.9596291746443,313.5086150354262 L592.9571273313152,312.2513702410255 M592.9571273313152,312.2513702410255 L593.4894660367363,311.0309538173567 M593.4894660367363,311.0309538173567 L594.5255372719915,309.9182418860561 M594.5255372719915,309.9182418860561 L596.0050205336647,308.97781286004505 M596.0050205336647,308.97781286004505 L597.8419056136252,308.26421032645067 M597.8419056136252,308.26421032645067 L599.9295132055144,307.8188079033387 M599.9295132055144,307.8188079033387 L602.1466583242809,307.66741482647774 M602.2429830870523,270.5404739183989 L602.1768099897089,318.0978130713409 M602.2126963798228,260.1353599304221 L599.9905951497908,260.28638567669265 M599.9905951497908,260.28638567669265 L597.8983225504904,260.73070746154417 M597.8983225504904,260.73070746154417 L596.0573340455387,261.44257882854976 M596.0573340455387,261.44257882854976 L594.574547099671,262.38072675696446 M594.574547099671,262.38072675696446 L593.5361640348106,263.4907402012024 M593.5361640348106,263.4907402012024 L593.0026401974187,264.7081975603752 M593.0026401974187,264.7081975603752 L593.0051532474288,265.9623946748479 M593.0051532474288,265.9623946748479 L593.543752698891,267.18044299246003 M593.543752698891,267.18044299246003 L594.587309154148,268.29150336348636 M594.587309154148,268.29150336348636 L596.0752873358329,269.2309168329305 M596.0752873358329,269.2309168329305 L597.9212310833959,269.9439777573331 M597.9212310833959,269.9439777573331 L600.017793020191,270.38914466049425 M600.017793020191,270.38914466049425 L602.2429830870523,270.5404739183989 M664.5863729277809,225.17228023832277 L664.3818967697995,272.6190266608813 M664.5863729277809,225.17228023832277 L602.2126963798228,260.1353599304221 M664.3818967697995,272.6190266608813 L602.1466583242809,307.66741482647774 M713.6338729060889,244.8822906787654 L673.5650311213653,267.44745400574857 M673.5650311213653,267.44745400574857 L671.5124821390411,267.5770509718989 M671.5124821390411,267.5770509718989 L669.5652719741854,267.9593667626659 M669.5652719741854,267.9593667626659 L667.8209337348036,268.57527846762594 M667.8209337348036,268.57527846762594 L666.3668606304891,269.39398460448774 M666.3668606304891,269.39398460448774 L665.275964131721,270.3745197561739 M665.275964131721,270.3745197561739 L664.6030201516087,271.4677902891289 M664.6030201516087,271.4677902891289 L664.3818967697995,272.6190266608813 M602.1768099897089,318.0978130713409 L633.5893360412808,335.7486476443183 M440.4016585153553,375.77203641688004 L633.5893360412808,335.7486476443183 M512.0362681629252,267.4474518272 L440.4016585153553,375.77203641688004 M512.0362681629252,267.4474518272 L543.1381981602655,284.9237611307589 M543.1381981602655,284.9237611307589 L543.4033025052211,286.16517415836495 M543.4033025052211,286.16517415836495 L544.1905061759714,287.33471720525705 M544.1905061759714,287.33471720525705 L545.454204334295,288.36434929881653 M545.454204334295,288.36434929881653 L547.1210256570077,289.1941317394304 M547.1210256570077,289.1941317394304 L549.0940736830632,289.7757313449514 M549.0940736830632,289.7757313449514 L551.2585753284584,290.0752598652002 M551.2585753284584,290.0752598652002 L553.4885669781335,290.07525952328666 M553.4885669781335,290.07525952328666 L555.6542582601121,289.77573100305807 M555.6542582601121,289.77573100305807 L557.629615319772,289.1941315343179 M557.629615319772,289.1941315343179 L559.2997258663456,288.36434929881653 M559.2997258663456,288.36434929881653 L560.5675106845631,287.3347180254086 M560.5675106845631,287.3347180254086 L561.3593530871008,286.1651740900347 M561.3593530871008,286.1651740900347 L561.6293849691874,284.923761677268 M561.6293849691874,284.923761677268 L673.1183781196833,222.4169675014012 M673.1183781196833,222.4169675014012 L713.6338729060889,244.8822906787654 M633.726048091971,288.14862941372775 L633.5893360412808,335.7486476443183 M602.2429830870523,270.5404739183989 L633.726048091971,288.14862941372775 M713.9472286717979,197.503436127116 L673.7898535509132,220.01334069394844 M673.7898535509132,220.01334069394844 L671.7327364627806,220.1426209381822 M671.7327364627806,220.1426209381822 L669.7811980384804,220.52400243042683 M669.7811980384804,220.52400243042683 L668.0329879150501,221.1384091123016 M668.0329879150501,221.1384091123016 L666.5756931408362,221.9551149401417 M666.5756931408362,221.9551149401417 L665.4823867336106,222.9332547780993 M665.4823867336106,222.9332547780993 L664.8079657661469,224.0238550950178 M664.8079657661469,224.0238550950178 L664.5863729277809,225.17228023832277 M440.10409801923015,328.07574693922265 L633.726048091971,288.14862941372775 M511.90137469659146,220.01333852072426 L440.10409801923015,328.07574693922265 M511.90137469659146,220.01333852072426 L543.0724540792885,237.44700365599647 M561.6048906351956,237.44700420117417 L561.3342533090712,238.68539249924754 M561.3342533090712,238.68539249924754 L560.5406411773192,239.85208800897024 M560.5406411773192,239.85208800897024 L559.2700245361509,240.87921210841984 M559.2700245361509,240.87921210841984 L557.5961843565341,241.70697414337357 M557.5961843565341,241.70697414337357 L555.6164166999761,242.2871578203027 M555.6164166999761,242.2871578203027 L553.4458906796362,242.58595725368565 M553.4458906796362,242.58595725368565 L551.2109218927561,242.58595759476685 M551.2109218927561,242.58595759476685 L549.0415908224422,242.28715816136383 M549.0415908224422,242.28715816136383 L547.0641425142251,241.7069743479868 M547.0641425142251,241.7069743479868 L545.3936062622847,240.87921210841984 M545.3936062622847,240.87921210841984 L544.1270945362021,239.85208719081615 M544.1270945362021,239.85208719081615 L543.3381418625545,238.68539256741133 M543.3381418625545,238.68539256741133 L543.0724540792885,237.44700365599647 M673.3412133926217,175.09334801719078 L561.6048906351956,237.44700420117417 M673.3412133926217,175.09334801719078 L713.9472286717979,197.503436127116 M673.7898535509132,220.01334069394844 L673.5650311213653,267.44745400574857 M713.9472286717979,197.503436127116 L713.6338729060889,244.8822906787654 M673.3412133926217,175.09334801719078 L673.1183781196833,222.4169675014012 M561.6048906351956,237.44700420117417 L561.6293849691874,284.923761677268 M543.0724540792885,237.44700365599647 L543.1381981602655,284.9237611307589 M511.90137469659146,220.01333852072426 L512.0362681629252,267.4474518272 M440.10409801923015,328.07574693922265 L440.4016585153553,375.77203641688004" stroke="black"  stroke-width="4"  fill="red"/>
<path d="M485.29324009863683,371.72581428869694 L485.09543235629917,323.70853882423023 M633.726048091971,288.1486294137276 L633.8633744101164,240.33473726405003 M485.29324009863683,371.72581428869694 L633.726048091971,288.1486294137276 M485.09543235629917,323.70853882423023 L633.8633744101164,240.33473726405003 M602.2429830870523,270.5404739183989 L602.3094529953255,222.7698224281735 M633.726048091971,288.1486294137276 L602.2429830870523,270.5404739183989 M633.8633744101164,240.33473726405003 L602.3094529953255,222.7698224281735 M602.2790303371262,212.39032452408185 L600.0519507926763,212.54097812357932 M600.0519507926763,212.54097812357932 L597.9549922938686,212.9842051008078 M597.9549922938686,212.9842051008078 L596.1098819927633,213.69432259966445 M596.1098819927633,213.69432259966445 L594.6237765780286,214.63015951282478 M594.6237765780286,214.63015951282478 L593.5830713453709,215.73743907131697 M593.5830713453709,215.73743907131697 L593.0483570884114,216.95189854062778 M593.0483570884114,216.95189854062778 L593.0508814205547,218.20300797786987 M593.0508814205547,218.20300797786987 L593.5906940753646,219.4180582739078 M593.5906940753646,219.4180582739078 L594.6365959205568,220.52638452497501 M594.6365959205568,220.52638452497501 L596.1279158730806,221.46348668999045 M596.1279158730806,221.46348668999045 L597.9780036569537,222.17479347987256 M597.9780036569537,222.17479347987256 L600.0792707511245,222.6188653828695 M600.0792707511245,222.6188653828695 L602.3094529953255,222.7698224281735 M602.2126963798228,260.1353599304221 L602.2790303371262,212.39032452408185 M602.2429830870523,270.5404739183989 L600.017793020191,270.38914466049425 M600.017793020191,270.38914466049425 L597.9212310833959,269.9439777573331 M597.9212310833959,269.9439777573331 L596.0752873358329,269.2309168329305 M596.0752873358329,269.2309168329305 L594.587309154148,268.29150336348636 M594.587309154148,268.29150336348636 L593.543752698891,267.18044299246003 M593.543752698891,267.18044299246003 L593.0051532474288,265.9623946748479 M593.0051532474288,265.9623946748479 L593.0026401974187,264.7081975603752 M593.0026401974187,264.7081975603752 L593.5361640348106,263.4907402012024 M593.5361640348106,263.4907402012024 L594.574547099671,262.38072675696446 M594.574547099671,262.38072675696446 L596.0573340455387,261.44257882854976 M596.0573340455387,261.44257882854976 L597.8983225504904,260.73070746154417 M597.8983225504904,260.73070746154417 L599.9905951497908,260.28638567669265 M599.9905951497908,260.28638567669265 L602.2126963798228,260.1353599304221 M714.2619798473887,149.91359799365347 L602.2790303371262,212.39032452408185 M713.9472286717979,197.503436127116 L714.2619798473887,149.91359799365347 M602.2126963798228,260.1353599304221 L713.9472286717979,197.503436127116 M673.3412133926217,175.09334801719078 L673.565038771803,127.55945925891069 M713.9472286717979,197.503436127116 L673.3412133926217,175.09334801719078 M714.2619798473887,149.91359799365347 L673.565038771803,127.55945925891069 M633.1828413769566,197.50344045427045 L633.3177347306143,149.91360231002616 M673.3412133926217,175.09334801719078 L633.1828413769566,197.50344045427045 M673.565038771803,127.55945925891069 L633.3177347306143,149.91360231002616 M623.9791881358227,202.63947335451306 L624.0936437196845,155.0368436025066 M633.1828413769566,197.50344045427045 L632.9582541461699,198.64586261572038 M632.9582541461699,198.64586261572038 L632.2819577842317,199.7312410885874 M632.2819577842317,199.7312410885874 L631.187754055188,200.70509030362751 M631.187754055188,200.70509030362751 L629.730434481402,201.51850507256353 M629.730434481402,201.51850507256353 L627.9830720251678,202.13061295326224 M627.9830720251678,202.13061295326224 L626.0333594341919,202.5106394491433 M626.0333594341919,202.5106394491433 L623.9791881358227,202.63947335451306 M633.3177347306143,149.91360231002616 L633.0926625797005,151.05317819572534 M633.0926625797005,151.05317819572534 L632.414874273591,152.13585304514123 M632.414874273591,152.13585304514123 L631.3182458713375,153.10727689124542 M631.3182458713375,153.10727689124542 L629.8576901565798,153.9186661723106 M629.8576901565798,153.9186661723106 L628.1064423558532,154.5292500321134 M628.1064423558532,154.5292500321134 L626.1523903536895,154.90833042417927 M626.1523903536895,154.90833042417927 L624.0936437196845,155.0368436025066 M561.6048906351956,237.44700420117417 L561.5802867929954,189.757989692553 M623.9791881358227,202.63947335451306 L561.6048906351956,237.44700420117417 M624.0936437196845,155.0368436025066 L561.5802867929954,189.757989692553 M543.0064160725196,189.75798914872422 L543.2726898668706,190.9933144572673 M543.2726898668706,190.9933144572673 L544.0633993310663,192.157123456234 M544.0633993310663,192.157123456234 L545.3327371791861,193.18170844699395 M545.3327371791861,193.18170844699395 L547.0070049537356,194.0074240913487 M547.0070049537356,194.0074240913487 L548.9888732115367,194.58617361266292 M548.9888732115367,194.58617361266292 L551.163055301988,194.88423443158376 M551.163055301988,194.88423443158376 L553.4030234889382,194.88423409134577 M553.4030234889382,194.88423409134577 L555.5784058785441,194.58617327244494 M555.5784058785441,194.58617327244494 L557.5626038686992,194.00742388724112 M557.5626038686992,194.00742388724112 L559.2401903735155,193.18170844699395 M559.2401903735155,193.18170844699395 L560.5136515145064,192.1571242723647 M560.5136515145064,192.1571242723647 L561.3090413023134,190.9933143892721 M561.3090413023134,190.9933143892721 L561.5802867929954,189.757989692553 M543.0724540792885,237.44700365599647 L543.0064160725196,189.75798914872422 M561.6048906351956,237.44700420117417 L561.3342533090712,238.68539249924754 M561.3342533090712,238.68539249924754 L560.5406411773192,239.85208800897024 M560.5406411773192,239.85208800897024 L559.2700245361509,240.87921210841984 M559.2700245361509,240.87921210841984 L557.5961843565341,241.70697414337357 M557.5961843565341,241.70697414337357 L555.6164166999761,242.2871578203027 M555.6164166999761,242.2871578203027 L553.4458906796362,242.58595725368565 M553.4458906796362,242.58595725368565 L551.2109218927561,242.58595759476685 M551.2109218927561,242.58595759476685 L549.0415908224422,242.28715816136383 M549.0415908224422,242.28715816136383 L547.0641425142251,241.7069743479868 M547.0641425142251,241.7069743479868 L545.3936062622847,240.87921210841984 M545.3936062622847,240.87921210841984 L544.1270945362021,239.85208719081615 M544.1270945362021,239.85208719081615 L543.3381418625545,238.68539256741133 M543.3381418625545,238.68539256741133 L543.0724540792885,237.44700365599647 M511.90137469659146,220.01333852072426 L511.7658791929357,172.36752403018818 M543.0724540792885,237.44700365599647 L511.90137469659146,220.01333852072426 M543.0064160725196,189.75798914872422 L511.7658791929357,172.36752403018818 M363.4766704781646,302.473007829547 L363.00609572757674,254.6240395802662 M511.90137469659146,220.01333852072426 L363.4766704781646,302.473007829547 M511.7658791929357,172.36752403018818 L363.00609572757674,254.6240395802662 M485.09543235629917,323.70853882423023 L489.68256155694723,331.9655316300731 M489.68256155694723,331.9655316300731 L493.1625555590244,340.40967077333255 M493.1625555590244,340.40967077333255 L495.5132262135255,348.9942085724782 M495.5132262135255,348.9942085724782 L496.7185299014164,357.6714018587513 M496.7185299014164,357.6714018587513 L496.7688341435392,366.39269285752493 M496.7688341435392,366.39269285752493 L495.6608921170407,375.1090903881723 M495.6608921170407,375.1090903881723 L493.3980114063739,383.7713426784985 M493.3980114063739,383.7713426784985 L489.9900941697095,392.3302796210463 M489.9900941697095,392.3302796210463 L485.45365225302623,400.7370406866178 M485.45365225302623,400.7370406866178 L479.81171351573585,408.9434321582274 M479.81171351573585,408.9434321582274 L473.0938271508961,416.90216911190623 M473.0938271508961,416.90216911190623 L465.33590110193074,424.5671962013054 M465.33590110193074,424.5671962013054 L456.5800790871681,431.893932314532 M456.5800790871681,431.893932314532 L446.87451017859496,438.83961112830514 M446.87451017859496,438.83961112830514 L436.27309208272817,445.36348890295915 M436.27309208272817,445.36348890295915 L424.8352323227813,451.42720124556786 M424.8352323227813,451.42720124556786 L412.62556712779826,456.9949023432773 M412.62556712779826,456.9949023432773 L399.7133263478697,462.0336335770926 M399.7133263478697,462.0336335770926 L386.1723475575908,466.5134260916476 M386.1723475575908,466.5134260916476 L372.0802872656199,470.407575734194 M372.0802872656199,470.407575734194 L357.51834288108876,473.6928466345598 M357.51834288108876,473.6928466345598 L342.5706518334431,476.3495651963311 M342.5706518334431,476.3495651963311 L327.3238318054756,478.36179655391936 M327.3238318054756,478.36179655391936 L311.8663761353481,479.71747409936984 M311.8663761353481,479.71747409936984 L296.28817281550533,480.4084490095704 M296.28817281550533,480.4084490095704 L280.679880904574,480.4305650763904 M280.679880904574,480.4305650763904 L265.1323454157332,479.7836756362359 M265.1323454157332,479.7836756362359 L249.73601807457078,478.4716944674367 M249.73601807457078,478.4716944674367 L234.58039143971484,476.502496470059 M234.58039143971484,476.502496470059 L219.75350661763275,473.8878893539111 M219.75350661763275,473.8878893539111 L205.34119649155872,470.6435714308676 M205.34119649155872,470.6435714308676 L191.42675115599914,466.7889496176323 M191.42675115599914,466.7889496176323 L178.09027242079134,462.34706557158665 M178.09027242079134,462.34706557158665 L165.40829737069572,457.34436763075905 M165.40829737069572,457.34436763075905 L153.4531627992848,451.81062114505505 M153.4531627992848,451.81062114505505 L142.29278030985097,445.77859804184675 M142.29278030985097,445.77859804184675 L131.99004536900418,439.28395604727655 M131.99004536900418,439.28395604727655 L122.60266199185429,432.3649021027601 M122.60266199185429,432.3649021027601 L114.18265214887538,425.06203930352984 M114.18265214887538,425.06203930352984 L106.77626476115393,417.41799177943346 M106.77626476115393,417.41799177943346 L100.42355327966152,409.47724338593014 M100.42355327966152,409.47724338593014 L95.15835506204576,401.2857592432737 M95.15835506204576,401.2857592432737 L91.00802612160248,392.89076233394803 M91.00802612160248,392.89076233394803 L87.99345127996418,384.340372694862 M87.99345127996418,384.340372694862 L86.12885557617756,375.6834306922427 M86.12885557617756,375.6834306922427 L85.42186373707716,366.9690962336643 M85.42186373707716,366.9690962336643 L85.87356793286335,358.2466069589762 M85.87356793286335,358.2466069589762 L87.47846386574918,349.56500301499534 M87.47846386574918,349.56500301499534 L90.22463395957965,340.9728547814828 M90.22463395957965,340.9728547814828 L94.09385691725373,332.51799349167794 M94.09385691725373,332.51799349167794 L99.06180186743859,324.247226677091 M99.06180186743859,324.247226677091 L105.09815777374382,316.206136416047 M105.09815777374382,316.206136416047 L112.16688608481832,308.4388120689388 M112.16688608481832,308.4388120689388 L120.2265324291958,300.9876644015254 M120.2265324291958,300.9876644015254 L129.23038182654278,293.89315972512145 M129.23038182654278,293.89315972512145 L139.1267777531254,287.19373130912254 M139.1267777531254,287.19373130912254 L149.85956061481872,280.92540494501014 M149.85956061481872,280.92540494501014 L161.36817503815,275.1218614347452 M161.36817503815,275.1218614347452 L173.58823903742478,269.81413594964613 M173.58823903742478,269.81413594964613 L186.45169786746553,265.0305037260404 M186.45169786746553,265.0305037260404 L199.88734444176518,260.7963821182466 M199.88734444176518,260.7963821182466 L213.82107659905336,257.1342128034433 M213.82107659905336,257.1342128034433 L228.17638000065784,254.06334986433845 M228.17638000065784,254.06334986433845 L242.87464181738235,251.5999969577853 M242.87464181738235,251.5999969577853 L257.83559880464423,249.75711344271406 M257.83559880464423,249.75711344271406 L272.9776493911884,248.54440338008692 M272.9776493911884,248.54440338008692 L288.2183747644796,247.96824152084878 M288.2183747644796,247.96824152084878 L303.4748414807116,248.03165040991541 M303.4748414807116,248.03165040991541 L318.6641140480482,248.73428426831225 M318.6641140480482,248.73428426831225 L333.7034817578167,250.07247675640508 M333.7034817578167,250.07247675640508 L348.5110673205445,252.03917658078362 M348.5110673205445,252.03917658078362 L363.00609572757674,254.6240395802662 M363.4766704781646,302.473007829547 L349.01405679626083,299.8818064382848 M349.01405679626083,299.8818064382848 L334.2396033466825,297.91028204991915 M334.2396033466825,297.91028204991915 L319.2339101213405,296.56880582683766 M319.2339101213405,296.56880582683766 L304.07867717053324,295.8644474869049 M304.07867717053324,295.8644474869049 L288.8564361750456,295.80088296199267 M288.8564361750456,295.80088296199267 L273.64994300897047,296.37845893354347 M273.64994300897047,296.37845893354347 L258.5419512418669,297.5941449507021 M258.5419512418669,297.5941449507021 L243.61470053464265,299.44154960052606 M243.61470053464265,299.44154960052606 L228.94961454261323,301.9109434869679 M228.94961454261323,301.9109434869679 L214.62678084548662,304.9893334646717 M214.62678084548662,304.9893334646717 L200.72463941186984,308.6604737188543 M200.72463941186984,308.6604737188543 L187.31953540344077,312.90495993202524 M187.31953540344077,312.90495993202524 L174.4854060807636,317.7002923442428 M174.4854060807636,317.7002923442428 L162.29329890303626,323.0209880283159 M162.29329890303626,323.0209880283159 L150.81111477462943,328.83869906411155 M150.81111477462943,328.83869906411155 L140.1030887542198,335.12231082153903 M140.1030887542198,335.12231082153903 L130.22963653125203,341.83805664441206 M130.22963653125203,341.83805664441206 L121.24678656767105,348.9498193257609 M121.24678656767105,348.9498193257609 L113.20607306706268,356.4190685682247 M113.20607306706268,356.4190685682247 L106.15409857685131,364.2052364293555 M106.15409857685131,364.2052364293555 L100.13221572736757,372.26580621716965 M100.13221572736757,372.26580621716965 L95.17637249709844,380.556579081199 M95.17637249709844,380.556579081199 L91.31680136200998,389.03186041662616 M91.31680136200998,389.03186041662616 L88.57776738534625,397.64472784193765 M88.57776738534625,397.64472784193765 L86.97743927976984,406.34723349183287 M86.97743927976984,406.34723349183287 L86.52769590110279,415.0906892992422 M86.52769590110279,415.0906892992422 L87.23401714841054,423.82593704888075 M87.23401714841054,423.82593704888075 L89.0953014057406,432.50362131568914 M89.0953014057406,432.50362131568914 L92.10392952595646,441.07446534465237 M92.10392952595646,441.07446534465237 L96.24569744029918,449.4895134176393 M96.24569744029918,449.4895134176393 L101.49975704490623,457.70053256209906 M101.49975704490623,457.70053256209906 L107.83880454872298,465.66018964512443 M107.83880454872298,465.66018964512443 L115.22907053420181,473.3224129748969 M115.22907053420181,473.3224129748969 L123.63058476020854,480.6426161556551 M123.63058476020854,480.6426161556551 L132.9971968880074,487.5780773576405 M132.9971968880074,487.5780773576405 L143.27699803958888,494.08810090960037 M143.27699803958888,494.08810090960037 L154.4124116896429,500.13439320143993 M154.4124116896429,500.13439320143993 L166.3406831806793,505.6812159979005 M166.3406831806793,505.6812159979005 L178.99405466693176,510.6957237065668 M178.99405466693176,510.6957237065668 L192.30035468706973,515.1480843314939 M192.30035468706973,515.1480843314939 L206.1832225135377,519.0117905339332 M206.1832225135377,519.0117905339332 L220.5627421791061,522.2637494125854 M220.5627421791061,522.2637494125854 L235.35581795546813,524.8845110103523 M235.35581795546813,524.8845110103523 L250.4768182330783,526.8583422730318 M250.4768182330783,526.8583422730318 L265.83790917058167,528.1734094089421 M265.83790917058167,528.1734094089421 L281.3498095531795,528.8218201449477 M281.3498095531795,528.8218201449477 L296.9222817586424,528.7996520706284 M296.9222817586424,528.7996520706284 L312.4646961450789,528.1070521748621 M312.4646961450789,528.1070521748621 L327.8866087580094,526.7481858293326 M327.8866087580094,526.7481858293326 L343.0983448981629,524.7312198374985 M343.0983448981629,524.7312198374985 L358.01162108161776,522.0682474640042 M358.01162108161776,522.0682474640042 L372.54002475353354,518.7752388428819 M372.54002475353354,518.7752388428819 L386.5996173278843,514.8719112128689 M386.5996173278843,514.8719112128689 L400.1093927476171,510.38155212486856 M400.1093927476171,510.38155212486856 L412.99187686251594,505.3309253207294 M412.99187686251594,505.3309253207294 L425.17340472261407,499.7500667737893 M425.17340472261407,499.7500667737893 L436.58490748668356,493.6720092074489 M436.58490748668356,493.6720092074489 L447.16189831163416,487.1326793937278 M447.16189831163416,487.1326793937278 L456.8451059669989,480.1705287791368 M456.8451059669989,480.1705287791368 L465.58075532446225,472.8263940315486 M465.58075532446225,472.8263940315486 L473.32080567494376,465.14313953687383 M473.32080567494376,465.14313953687383 L480.0232069387206,457.16544920955846 M480.0232069387206,457.16544920955846 L485.65212966113654,448.9394852185692 M485.65212966113654,448.9394852185692 L490.1780878332373,440.512642826714 M490.1780878332373,440.512642826714 L493.57810124842047,431.93322890707975 M493.57810124842047,431.93322890707975 L495.83569035541,423.2502194363495 M495.83569035541,423.2502194363495 L496.94096989038854,414.51290144296195 M496.94096989038854,414.51290144296195 L496.89063397820206,405.770644568303 M496.89063397820206,405.770644568303 L495.6879162393251,397.0725579936577 M495.6879162393251,397.0725579936577 L493.342421605218,388.4673171994375 M493.342421605218,388.4673171994375 L489.8701519190436,380.0027818208666 M489.8701519190436,380.0027818208666 L485.29324009863683,371.72581428869694 M312.95016720192825,399.19163687317644 L316.5459211573936,401.7211778047031 M316.5459211573936,401.7211778047031 L319.19420115295725,404.60863252844626 M319.19420115295725,404.60863252844626 L320.79266115864084,407.743523058316 M320.79266115864084,407.743523058316 L321.278959885101,411.00572900081727 M321.278959885101,411.00572900081727 L320.63336381766135,414.27000625519156 M320.63336381766135,414.27000625519156 L318.87967731912283,417.41077597937715 M318.87967731912283,417.41077597937715 L316.0843985790996,420.30701984027087 M316.0843985790996,420.30701984027087 L312.3543841844787,422.8469283147993 M312.3543841844787,422.8469283147993 L307.8327386674491,424.9323272716721 M307.8327386674491,424.9323272716721 L302.6934997522976,426.482455213144 M302.6934997522976,426.482455213144 L297.1347507124434,427.43724944038934 M297.1347507124434,427.43724944038934 L291.3709967670983,427.75968422563926 M291.3709967670983,427.75968422563926 L285.62479984154606,427.43724151943456 M285.62479984154606,427.43724151943456 L280.1179882539683,426.4824504048812 M280.1179882539683,426.4824504048812 L275.0630788844864,424.9323264234097 M275.0630788844864,424.9323264234097 L270.65493199887214,422.8469283147993 M270.65493199887214,422.8469283147993 L267.06307729447667,420.30702294778337 M267.06307729447667,420.30702294778337 L264.42538308842506,417.41077400297775 M264.42538308842506,417.41077400297775 L262.8425837010045,414.26999835440154 M262.8425837010045,414.26999835440154 L262.37459031675445,411.005738024583 M262.37459031675445,411.005738024583 L263.03837950534,407.7435332036363 M263.03837950534,407.7435332036363 L264.80739077903104,404.6086395695272 M264.80739077903104,404.6086395695272 L267.6127768024661,401.72118990858297 M267.6127768024661,401.72118990858297 L271.34617450406,399.19163687317644 M271.34617450406,399.19163687317644 L275.8638723624531,397.1166294638688 M275.8638723624531,397.1166294638688 L280.99252554125127,395.5752957496867 M280.99252554125127,395.5752957496867 L286.5356300835679,394.62637763368105 M286.5356300835679,394.62637763368105 L292.2810785974506,394.3059972729258 M292.2810785974506,394.3059972729258 L298.00908240239636,394.626367514139 M298.00908240239636,394.626367514139 L303.5005530577049,395.5752915324341 M303.5005530577049,395.5752915324341 L308.54535512730797,397.1166213080752 M308.54535512730797,397.1166213080752 L312.95016720192825,399.19163687317644 M312.95016720192825,399.19163687317644 L312.36035591221247,351.108194242235 M312.36035591221247,351.108194242235 L307.9456593907667,349.03816596054673 M307.9456593907667,349.03816596054673 L302.88949205763976,347.50054198390455 M302.88949205763976,347.50054198390455 L297.3856095597875,346.5538999705926 M297.3856095597875,346.5538999705926 L291.6446203114625,346.23430025608786 M291.6446203114625,346.23430025608786 L285.8861070816296,346.55391006579674 M285.8861070816296,346.55391006579674 L280.3303559655128,347.5005461910159 M280.3303559655128,347.5005461910159 L275.18995624350987,349.0381740967342 M275.18995624350987,349.0381740967342 L270.6618605482234,351.108194242235 M270.6618605482234,351.108194242235 L266.91981213725916,353.6316700771079 M266.91981213725916,353.6316700771079 L264.107855904194,356.5121861359471 M264.107855904194,356.5121861359471 L262.334609933163,359.6395561330094 M262.334609933163,359.6395561330094 L261.6690882187388,362.89393636130643 M261.6690882187388,362.89393636130643 L262.13792257010675,366.15037185080496 M262.13792257010675,366.15037185080496 L263.724108778729,369.2836230889219 M263.724108778729,369.2836230889219 L266.36760964925026,372.17293728323557 M266.36760964925026,372.17293728323557 L269.9674705694092,374.7067641602158 M269.9674705694092,374.7067641602158 L274.3855164778764,376.7871736236034 M274.3855164778764,376.7871736236034 L279.4518365864579,378.3335906699753 M279.4518365864579,378.3335906699753 L284.97112946796494,379.28609904208076 M284.97112946796494,379.28609904208076 L290.73039458474403,379.60777093337924 M290.73039458474403,379.60777093337924 L296.50729676174785,379.2861069440996 M296.50729676174785,379.2861069440996 L302.07876397559664,378.3335954667413 M302.07876397559664,378.3335954667413 L307.22979818106796,376.78717446983705 M307.22979818106796,376.78717446983705 L311.7618600822255,374.7067641602158 M311.7618600822255,374.7067641602158 L315.5005104978084,372.1729341831616 M315.5005104978084,372.1729341831616 L318.30231397187345,369.2836250605877 M318.30231397187345,369.2836250605877 L320.06016575379954,366.1503797326616 M320.06016575379954,366.1503797326616 L320.70741159942713,362.8939273591783 M320.70741159942713,362.8939273591783 L320.2201883907532,359.63954601203056 M320.2201883907532,359.63954601203056 L318.61826992657325,356.5121791117694 M318.61826992657325,356.5121791117694 L315.96413451910246,353.6316580023005 M315.96413451910246,353.6316580023005 L312.36035591221247,351.108194242235" stroke="black"  stroke-width="4"  fill="red"/>
<path d="M602.3456622923909,164.43079983054383 L602.2790303371262,212.39032452408185 M602.3094529953255,222.7698224281735 L600.0792707511245,222.6188653828695 M600.0792707511245,222.6188653828695 L597.9780036569537,222.17479347987256 M597.9780036569537,222.17479347987256 L596.1279158730806,221.46348668999045 M596.1279158730806,221.46348668999045 L594.6365959205568,220.52638452497501 M594.6365959205568,220.52638452497501 L593.5906940753646,219.4180582739078 M593.5906940753646,219.4180582739078 L593.0508814205547,218.20300797786987 M593.0508814205547,218.20300797786987 L593.0483570884114,216.95189854062778 M593.0483570884114,216.95189854062778 L593.5830713453709,215.73743907131697 M593.5830713453709,215.73743907131697 L594.6237765780286,214.63015951282478 M594.6237765780286,214.63015951282478 L596.1098819927633,213.69432259966445 M596.1098819927633,213.69432259966445 L597.9549922938686,212.9842051008078 M597.9549922938686,212.9842051008078 L600.0519507926763,212.54097812357932 M600.0519507926763,212.54097812357932 L602.2790303371262,212.39032452408185 M602.3762218191198,174.78434607129805 L602.3094529953255,222.7698224281735 M602.3456622923909,164.43079983054383 L600.1135820731074,164.58107641265394 M600.1135820731074,164.58107641265394 L598.0119166347636,165.02319425275104 M598.0119166347636,165.02319425275104 L596.1626660362972,165.7315349253031 M596.1626660362972,165.7315349253031 L594.6732272634051,166.66503056735993 M594.6732272634051,166.66503056735993 L593.6301894516532,167.76954044122817 M593.6301894516532,167.76954044122817 L593.0942794502166,168.9809627563179 M593.0942794502166,168.9809627563179 L593.0968151406419,170.2289440667189 M593.0968151406419,170.2289440667189 L593.6378464774818,171.44095705707997 M593.6378464774818,171.44095705707997 L594.6861042806368,172.54651335433294 M594.6861042806368,172.54651335433294 L596.1807810505585,173.48127391679378 M596.1807810505585,173.48127391679378 L598.0350315220455,174.1908035742585 M598.0350315220455,174.1908035742585 L600.1410249436044,174.63376611935024 M600.1410249436044,174.63376611935024 L602.3762218191198,174.78434607129805 M664.9980708559938,129.64169420107476 L664.7917621405048,177.5136681524636 M664.9980708559938,129.64169420107476 L602.3456622923909,164.43079983054383 M664.7917621405048,177.5136681524636 L602.2790303371262,212.39032452408185 M674.0156793759339,172.3675261980189 L671.9539738068481,172.49648559864482 M671.9539738068481,172.49648559864482 L669.9980878419519,172.87692063320486 M669.9980878419519,172.87692063320486 L668.2459886106952,173.4898027034854 M668.2459886106952,173.4898027034854 L666.7854578618023,174.30448218397248 M666.7854578618023,174.30448218397248 L665.6897308776595,175.28019552282382 M665.6897308776595,175.28019552282382 L665.0138264277675,176.36809085259117 M665.0138264277675,176.36809085259117 L664.7917621405048,177.5136681524636 M714.2619798473887,149.91359799365347 L674.0156793759339,172.3675261980189 M673.565038771803,127.55945925891069 L714.2619798473887,149.91359799365347 M561.5802867929954,189.757989692553 L673.565038771803,127.55945925891069 M543.0064160725196,189.75798914872422 L543.2726898668706,190.9933144572673 M543.2726898668706,190.9933144572673 L544.0633993310663,192.157123456234 M544.0633993310663,192.157123456234 L545.3327371791861,193.18170844699395 M545.3327371791861,193.18170844699395 L547.0070049537356,194.0074240913487 M547.0070049537356,194.0074240913487 L548.9888732115367,194.58617361266292 M548.9888732115367,194.58617361266292 L551.163055301988,194.88423443158376 M551.163055301988,194.88423443158376 L553.4030234889382,194.88423409134577 M553.4030234889382,194.88423409134577 L555.5784058785441,194.58617327244494 M555.5784058785441,194.58617327244494 L557.5626038686992,194.00742388724112 M557.5626038686992,194.00742388724112 L559.2401903735155,193.18170844699395 M559.2401903735155,193.18170844699395 L560.5136515145064,192.1571242723647 M560.5136515145064,192.1571242723647 L561.3090413023134,190.9933143892721 M561.3090413023134,190.9933143892721 L561.5802867929954,189.757989692553 M511.76587919293564,172.36752403018818 L543.0064160725196,189.75798914872422 M511.76587919293564,172.36752403018818 L439.8051952928678,280.1643099444235 M439.8051952928678,280.1643099444235 L633.8633744101164,240.33473726405003 M602.3094529953255,222.7698224281735 L633.8633744101164,240.33473726405003 M634.0013193581226,192.3054523051617 L633.8633744101164,240.33473726405003 M602.3762218191198,174.78434607129805 L634.0013193581226,192.3054523051617 M674.2425156791714,124.50851616670047 L672.1762011102442,124.6371505556566 M672.1762011102442,124.6371505556566 L670.2159481877297,125.01662683657264 M670.2159481877297,125.01662683657264 L668.4599425036515,125.62796448635419 M668.4599425036515,125.62796448635419 L666.9961613747964,126.44059128816889 M666.9961613747964,126.44059128816889 L665.8980030705259,127.41384659159769 M665.8980030705259,127.41384659159769 L665.2206085978997,128.49900177176164 M665.2206085978997,128.49900177176164 L664.9980708559938,129.64169420107476 M714.5781362629228,102.11128998993206 L674.2425156791714,124.50851616670047 M673.7898612180986,79.8138229433493 L714.5781362629228,102.11128998993206 M561.5555726683879,141.8552175405145 L673.7898612180986,79.8138229433493 M561.5555726683879,141.8552175405145 L561.2837162733069,143.0874387040696 M561.2837162733069,143.0874387040696 L560.4865408464684,144.2483253401145 M560.4865408464684,144.2483253401145 L559.2102224390549,145.2703364697513 M559.2102224390549,145.2703364697513 L557.528872798759,146.09397862347237 M557.528872798759,146.09397862347237 L555.5402245986581,146.6712750083856 M555.5402245986581,146.6712750083856 L553.3599640558538,146.96858757770585 M553.3599640558538,146.96858757770585 L551.1149740485026,146.96858791708965 M551.1149740485026,146.96858791708965 L548.9359191899957,146.6712753477495 M548.9359191899957,146.6712753477495 L546.9496111761778,146.09397882706736 M546.9496111761778,146.09397882706736 L545.2715951684229,145.2703364697513 M545.2715951684229,145.2703364697513 L543.9994185553885,144.24832452603363 M543.9994185553885,144.24832452603363 L543.2069444581393,143.08743877189409 M543.2069444581393,143.08743877189409 L542.9400820619677,141.85521699805207 M511.62977740231116,124.50851400433316 L542.9400820619677,141.85521699805207 M511.62977740231116,124.50851400433316 L439.5049407701531,232.0361920696983 M439.5049407701531,232.0361920696983 L634.0013193581226,192.3054523051617 M674.2425156791714,124.50851616670047 L674.0156793759339,172.3675261980189 M714.5781362629228,102.11128998993206 L714.2619798473887,149.91359799365347 M673.7898612180986,79.8138229433493 L673.565038771803,127.55945925891069 M561.5555726683879,141.8552175405145 L561.5802867929954,189.757989692553 M542.9400820619677,141.85521699805207 L543.0064160725196,189.75798914872422 M511.62977740231116,124.50851400433316 L511.76587919293564,172.36752403018818 M439.5049407701531,232.0361920696983 L439.8051952928678,280.1643099444235" stroke="black"  stroke-width="4"  fill="red"/>
<path d="M561.6537705057049,332.18963971868266 L561.6293849691874,284.923761677268 M543.1381981602655,284.9237611307589 L543.4033025052211,286.16517415836495 M543.4033025052211,286.16517415836495 L544.1905061759714,287.33471720525705 M544.1905061759714,287.33471720525705 L545.454204334295,288.36434929881653 M545.454204334295,288.36434929881653 L547.1210256570077,289.1941317394304 M547.1210256570077,289.1941317394304 L549.0940736830632,289.7757313449514 M549.0940736830632,289.7757313449514 L551.2585753284584,290.0752598652002 M551.2585753284584,290.0752598652002 L553.4885669781335,290.07525952328666 M553.4885669781335,290.07525952328666 L555.6542582601121,289.77573100305807 M555.6542582601121,289.77573100305807 L557.629615319772,289.1941315343179 M557.629615319772,289.1941315343179 L559.2997258663456,288.36434929881653 M559.2997258663456,288.36434929881653 L560.5675106845631,287.3347180254086 M560.5675106845631,287.3347180254086 L561.3593530871008,286.1651740900347 M561.3593530871008,286.1651740900347 L561.6293849691874,284.923761677268 M543.2036502230978,332.18963917085927 L543.1381981602655,284.9237611307589 M561.6537705057049,332.18963971868266 L561.3843413648858,333.4340371920789 M561.3843413648858,333.4340371920789 L560.5942608162693,334.60639275973904 M560.5942608162693,334.60639275973904 L559.3292952265188,335.6384988151437 M559.3292952265188,335.6384988151437 L557.6628977292899,336.47027514630554 M557.6628977292899,336.47027514630554 L555.691931658047,337.0532721097121 M555.691931658047,337.0532721097121 L553.5310536240229,337.3535202935841 M553.5310536240229,337.3535202935841 L551.3060169932555,337.35352063631905 M551.3060169932555,337.35352063631905 L549.146323317746,337.0532724524269 M549.146323317746,337.0532724524269 L547.1776560340413,336.470275351911 M547.1776560340413,336.470275351911 L545.5145331547665,335.6384988151437 M545.5145331547665,335.6384988151437 L544.2536360912377,334.6063919376162 M544.2536360912377,334.6063919376162 L543.4681736860618,333.4340372605734 M543.4681736860618,333.4340372605734 L543.2036502230978,332.18963917085927 M623.7517967303418,297.2126564068136 L623.8652402337489,250.03095580063984 M623.7517967303418,297.2126564068136 L561.6537705057049,332.18963971868266 M623.8652402337489,250.03095580063984 L561.6293849691874,284.923761677268 M633.0485460560733,244.8822950165639 L632.8244416627913,246.02752703670012 M632.8244416627913,246.02752703670012 L632.1496306930762,247.11557453406994 M632.1496306930762,247.11557453406994 L631.0578409410165,248.0918180741279 M631.0578409410165,248.0918180741279 L629.6037432019493,248.90723240111083 M629.6037432019493,248.90723240111083 L627.8602488912454,249.5208447899937 M627.8602488912454,249.5208447899937 L625.9148564842324,249.90180527520283 M625.9148564842324,249.90180527520283 L623.8652402337489,250.03095580063984 M673.1183781196833,222.4169675014012 L633.0485460560733,244.8822950165639 M713.6338729060889,244.8822906787654 L673.1183781196833,222.4169675014012 M602.1466583242809,307.66741482647774 L713.6338729060889,244.8822906787654 M602.1768099897089,318.0978130713409 L599.956589804332,317.946116426983 M599.956589804332,317.946116426983 L597.8647120040214,317.4998687207624 M597.8647120040214,317.4998687207624 L596.0228937728818,316.78507640245107 M596.0228937728818,316.78507640245107 L594.5382424215335,315.8433815877796 M594.5382424215335,315.8433815877796 L593.4970208627226,314.72962252984587 M593.4970208627226,314.72962252984587 L592.9596291746443,313.5086150354262 M592.9596291746443,313.5086150354262 L592.9571273313152,312.2513702410255 M592.9571273313152,312.2513702410255 L593.4894660367363,311.0309538173567 M593.4894660367363,311.0309538173567 L594.5255372719915,309.9182418860561 M594.5255372719915,309.9182418860561 L596.0050205336647,308.97781286004505 M596.0050205336647,308.97781286004505 L597.8419056136252,308.26421032645067 M597.8419056136252,308.26421032645067 L599.9295132055144,307.8188079033387 M599.9295132055144,307.8188079033387 L602.1466583242809,307.66741482647774 M633.5893360412808,335.7486476443183 L602.1768099897089,318.0978130713409 M633.5893360412808,335.7486476443183 L440.4016585153553,375.77203641688004 M440.4016585153553,375.77203641688004 L512.0362681629252,267.4474518272 M543.1381981602655,284.9237611307589 L512.0362681629252,267.4474518272 M512.170563492261,314.67123546452444 L512.0362681629252,267.4474518272 M543.2036502230978,332.18963917085927 L512.170563492261,314.67123546452444 M632.9148449026136,292.0515296771486 L632.6912212772185,293.1995355360028 M632.6912212772185,293.1995355360028 L632.0178891897025,294.2902178362474 M632.0178891897025,294.2902178362474 L630.9285027871732,295.2688249959968 M630.9285027871732,295.2688249959968 L629.4776126687624,296.08621323404594 M629.4776126687624,296.08621323404594 L627.7379694156127,296.7013108312641 M627.7379694156127,296.7013108312641 L625.7968780895369,297.083193323478 M625.7968780895369,297.083193323478 L623.7517967303418,297.2126564068136 M672.896526568378,269.5316736136869 L632.9148449026136,292.0515296771486 M713.3219035311103,292.0515253288426 L672.896526568378,269.5316736136869 M602.0809142455264,354.987874746173 L713.3219035311103,292.0515253288426 M602.0809142455264,354.987874746173 L599.8687031792866,355.13963039034286 M599.8687031792866,355.13963039034286 L597.7857398385521,355.58609943799524 M597.7857398385521,355.58609943799524 L595.9529399318284,356.30141068599903 M595.9529399318284,356.30141068599903 L594.4767456657335,357.2440912206308 M594.4767456657335,357.2440912206308 L593.4429759890056,358.3594666292569 M593.4429759890056,358.3594666292569 L592.9118171622017,359.5828037187099 M592.9118171622017,359.5828037187099 L592.9143078736397,360.84305663533314 M592.9143078736397,360.84305663533314 L593.4504972027157,362.0669848887852 M593.4504972027157,362.0669848887852 L594.4893942900915,363.1834075901167 M594.4893942900915,363.1834075901167 L595.9707336541815,364.1273541202175 M595.9707336541815,364.1273541202175 L597.8084447680694,364.8438553418856 M597.8084447680694,364.8438553418856 L599.8956593158163,365.2911698101841 M599.8956593158163,365.2911698101841 L602.110931770336,365.44322906792263 M633.453234250422,383.1361873190466 L602.110931770336,365.44322906792263 M633.453234250422,383.1361873190466 L440.6978855741925,423.2545878086304 M440.6978855741925,423.2545878086304 L512.170563492261,314.67123546452444 M632.9148449026136,292.0515296771486 L633.0485460560733,244.8822950165639 M672.896526568378,269.5316736136869 L673.1183781196833,222.4169675014012 M713.3219035311103,292.0515253288426 L713.6338729060889,244.8822906787654 M602.0809142455264,354.987874746173 L602.1466583242809,307.66741482647774 M602.110931770336,365.44322906792263 L602.1768099897089,318.0978130713409 M633.453234250422,383.1361873190466 L633.5893360412808,335.7486476443183 M440.6978855741925,423.2545878086304 L440.4016585153553,375.77203641688004" stroke="black"  stroke-width="4"  fill="red"/></svg>